<svg width="897" height="215" viewBox="0 0 897 215" fill="none" xmlns="http://www.w3.org/2000/svg">
<path d="M359 1.5C299.5 63 206 46 134.5 71C39.6894 104.151 30.6667 183.167 14.5 196.5" stroke="#2D2D2D" stroke-width="3"/>
<path d="M12.6469 210.684L6.77741 188.778L28.6827 194.648L12.6469 210.684Z" fill="#1B1B1B"/>
<path d="M545 6C605 61.5 715.5 81.5 740 86C820.719 100.826 864 141 880.5 192" stroke="#2D2D2D" stroke-width="3"/>
<path d="M883.718 210.851L868.596 193.951L890.793 189.305L883.718 210.851Z" fill="#1B1B1B"/>
<path d="M458 8C466.5 43.5 457.653 49.5344 444 110C433.5 156.5 435.5 191 435.5 196.5" stroke="#2D2D2D" stroke-width="3"/>
<path d="M435.036 211.129L423.697 191.489L446.375 191.489L435.036 211.129Z" fill="#1B1B1B"/>
</svg>
