<svg width="86" height="107" viewBox="0 0 86 107" fill="none" xmlns="http://www.w3.org/2000/svg">
<mask id="path-1-inside-1" fill="white">
<path fill-rule="evenodd" clip-rule="evenodd" d="M47.9213 7.98691C47.9213 3.57587 51.4972 2.65926e-05 55.9082 2.65926e-05C60.3193 2.65926e-05 63.8951 3.57588 63.8951 7.98692V63.8324L71.2362 54.3533C73.8889 50.928 78.816 50.3018 82.2412 52.9544C85.6665 55.6071 86.2928 60.5342 83.6401 63.9595L59.3682 95.3003L59.302 95.249C54.956 101.817 43.7523 106.492 30.6164 106.492C14.4996 106.492 1.29131 99.4535 0.0891651 90.518H0V89.1874V42.5967C0 38.1856 3.57585 34.6098 7.98689 34.6098C12.3979 34.6098 15.9738 38.1856 15.9738 42.5967L15.9738 39.9343C15.9738 35.5232 19.5497 31.9474 23.9607 31.9474C28.3717 31.9474 31.9476 35.5232 31.9476 39.9343L31.9476 37.2718C31.9476 32.8608 35.5234 29.285 39.9345 29.285C44.3376 29.285 47.9086 32.848 47.9213 37.2482V7.98691Z"/>
</mask>
<path d="M63.8951 63.8324H61.8951V69.6812L65.4764 65.057L63.8951 63.8324ZM71.2362 54.3533L72.8174 55.5779L71.2362 54.3533ZM82.2412 52.9544L81.0166 54.5357L82.2412 52.9544ZM83.6401 63.9595L82.0588 62.7349L83.6401 63.9595ZM59.3682 95.3003L58.1436 96.8815L59.7249 98.1062L60.9495 96.5249L59.3682 95.3003ZM59.302 95.249L60.5266 93.6677L58.8232 92.3484L57.6341 94.1453L59.302 95.249ZM0.0891651 90.518L2.07131 90.2513L1.83811 88.518H0.0891651V90.518ZM0 90.518H-2V92.518H0V90.518ZM15.9738 39.9343L17.9738 39.9343V39.9343H15.9738ZM31.9476 37.2718L33.9476 37.2719V37.2718H31.9476ZM47.9213 37.2482L45.9214 37.254L49.9213 37.2482H47.9213ZM55.9082 -1.99997C50.3926 -1.99997 45.9213 2.4713 45.9213 7.98691H49.9213C49.9213 4.68044 52.6018 2.00003 55.9082 2.00003V-1.99997ZM65.8951 7.98692C65.8951 2.47131 61.4238 -1.99997 55.9082 -1.99997V2.00003C59.2147 2.00003 61.8951 4.68045 61.8951 7.98692H65.8951ZM65.8951 63.8324V7.98692H61.8951V63.8324H65.8951ZM65.4764 65.057L72.8174 55.5779L69.6549 53.1287L62.3139 62.6078L65.4764 65.057ZM72.8174 55.5779C74.7938 53.0259 78.4647 52.5593 81.0166 54.5357L83.4658 51.3732C79.1673 48.0442 72.9839 48.8301 69.6549 53.1287L72.8174 55.5779ZM81.0166 54.5357C83.5686 56.512 84.0352 60.1829 82.0588 62.7349L85.2213 65.1841C88.5504 60.8855 87.7644 54.7022 83.4658 51.3732L81.0166 54.5357ZM82.0588 62.7349L57.787 94.0757L60.9495 96.5249L85.2213 65.1841L82.0588 62.7349ZM60.5929 93.7191L60.5266 93.6677L58.0773 96.8302L58.1436 96.8815L60.5929 93.7191ZM30.6164 108.492C37.4121 108.492 43.7516 107.284 48.9967 105.191C54.2132 103.109 58.4977 100.089 60.9699 96.3527L57.6341 94.1453C55.7603 96.9769 52.27 99.5779 47.5141 101.476C42.7869 103.362 36.9567 104.492 30.6164 104.492V108.492ZM-1.89298 90.7847C-1.1684 96.1704 3.09044 100.607 8.82846 103.626C14.6271 106.677 22.2879 108.492 30.6164 108.492V104.492C22.8281 104.492 15.8263 102.788 10.6911 100.086C5.49522 97.3521 2.54887 93.8011 2.07131 90.2513L-1.89298 90.7847ZM0 92.518H0.0891651V88.518H0V92.518ZM-2 89.1874V90.518H2V89.1874H-2ZM-2 42.5967V89.1874H2V42.5967H-2ZM7.98689 32.6098C2.47128 32.6098 -2 37.0811 -2 42.5967H2C2 39.2902 4.68042 36.6098 7.98689 36.6098V32.6098ZM17.9738 42.5967C17.9738 37.0811 13.5025 32.6098 7.98689 32.6098V36.6098C11.2934 36.6098 13.9738 39.2902 13.9738 42.5967H17.9738ZM13.9738 39.9342L13.9738 42.5966L17.9738 42.5967L17.9738 39.9343L13.9738 39.9342ZM23.9607 29.9474C18.4451 29.9474 13.9738 34.4187 13.9738 39.9343H17.9738C17.9738 36.6278 20.6542 33.9474 23.9607 33.9474V29.9474ZM33.9476 39.9343C33.9476 34.4186 29.4763 29.9474 23.9607 29.9474V33.9474C27.2672 33.9474 29.9476 36.6278 29.9476 39.9343H33.9476ZM29.9476 37.2718L29.9476 39.9342L33.9476 39.9343L33.9476 37.2719L29.9476 37.2718ZM39.9345 27.285C34.4189 27.285 29.9476 31.7562 29.9476 37.2718H33.9476C33.9476 33.9654 36.628 31.285 39.9345 31.285V27.285ZM49.9213 37.2424C49.9054 31.7402 45.4403 27.285 39.9345 27.285V31.285C43.235 31.285 45.9118 33.9558 45.9214 37.254L49.9213 37.2424ZM45.9213 7.98691V37.2482H49.9213V7.98691H45.9213Z" fill="white" mask="url(#path-1-inside-1)"/>
</svg>
