<svg width="55" height="97" viewBox="0 0 55 97" fill="none" xmlns="http://www.w3.org/2000/svg">
<path d="M11.6565 54.2843C16.6097 60.7695 24.0834 66.5273 32.6565 62.9321C36.7938 61.1971 40.0813 58.2635 42.6565 54.8519M11.6565 54.2843C9.44547 51.3895 7.73667 48.3497 6.65649 45.9321L15.1565 23.9321L29.6565 30.4321L31.6565 23.9321L50.6565 34.4321C50.1012 39.3187 47.7994 48.0386 42.6565 54.8519M11.6565 54.2843C12.9898 61.6669 12.8565 77.6321 1.65649 82.4321C10.1565 92.7655 32.3565 107.132 53.1565 81.9321C49.4025 81.0453 42.047 74.3878 42.6565 54.8519M4.15655 41.9321C0.156546 31.5988 -3.24345 9.4321 15.1565 3.4321C33.5565 -2.5679 43.8232 3.9321 46.6565 7.9321C49.1565 10.9321 53.7565 19.9321 52.1565 31.9321L29.6565 19.9321L27.6565 27.4321L12.1565 19.9321L4.15655 41.9321Z" stroke="white" stroke-width="2"/>
</svg>
