<svg width="84" height="107" viewBox="0 0 84 107" fill="none" xmlns="http://www.w3.org/2000/svg">
<mask id="path-1-inside-1" fill="white">
<path fill-rule="evenodd" clip-rule="evenodd" d="M36.9189 0C32.5006 0 28.9189 3.58172 28.9189 8V11.5675H8C3.58172 11.5675 0 15.1492 0 19.5675V34.7026H8.67566V99.0001C8.67566 103.418 12.2574 107 16.6757 107H67.1891C71.6074 107 75.1891 103.418 75.1891 99.0001V34.7026H83.8647V19.5675C83.8647 15.1492 80.283 11.5675 75.8647 11.5675H54.9459V8C54.9459 3.58172 51.3641 0 46.9459 0H36.9189Z"/>
</mask>
<path d="M28.9189 11.5675V13.5675H30.9189V11.5675H28.9189ZM0 34.7026H-2V36.7026H0V34.7026ZM8.67566 34.7026H10.6757V32.7026H8.67566V34.7026ZM75.1891 34.7026V32.7026H73.1891V34.7026H75.1891ZM83.8647 34.7026V36.7026H85.8647V34.7026H83.8647ZM54.9459 11.5675H52.9459V13.5675H54.9459V11.5675ZM30.9189 8C30.9189 4.68629 33.6052 2 36.9189 2V-2C31.396 -2 26.9189 2.47715 26.9189 8H30.9189ZM30.9189 11.5675V8H26.9189V11.5675H30.9189ZM28.9189 9.5675H8V13.5675H28.9189V9.5675ZM8 9.5675C2.47716 9.5675 -2 14.0446 -2 19.5675H2C2 16.2538 4.68629 13.5675 8 13.5675V9.5675ZM-2 19.5675V34.7026H2V19.5675H-2ZM0 36.7026H8.67566V32.7026H0V36.7026ZM6.67566 34.7026V99.0001H10.6757V34.7026H6.67566ZM6.67566 99.0001C6.67566 104.523 11.1528 109 16.6757 109V105C13.362 105 10.6757 102.314 10.6757 99.0001H6.67566ZM16.6757 109H67.1891V105H16.6757V109ZM67.1891 109C72.7119 109 77.1891 104.523 77.1891 99.0001H73.1891C73.1891 102.314 70.5028 105 67.1891 105V109ZM77.1891 99.0001V34.7026H73.1891V99.0001H77.1891ZM75.1891 36.7026H83.8647V32.7026H75.1891V36.7026ZM85.8647 34.7026V19.5675H81.8647V34.7026H85.8647ZM85.8647 19.5675C85.8647 14.0447 81.3876 9.5675 75.8647 9.5675V13.5675C79.1785 13.5675 81.8647 16.2538 81.8647 19.5675H85.8647ZM75.8647 9.5675H54.9459V13.5675H75.8647V9.5675ZM52.9459 8V11.5675H56.9459V8H52.9459ZM46.9459 2C50.2596 2 52.9459 4.68629 52.9459 8H56.9459C56.9459 2.47715 52.4687 -2 46.9459 -2V2ZM36.9189 2H46.9459V-2H36.9189V2Z" fill="white" mask="url(#path-1-inside-1)"/>
<rect x="23.1353" y="40.4863" width="2.89189" height="52.054" rx="1.44594" fill="white"/>
<rect x="40.4863" y="40.4863" width="2.89189" height="52.054" rx="1.44594" fill="white"/>
<rect x="57.8379" y="40.4863" width="2.89189" height="52.054" rx="1.44594" fill="white"/>
</svg>
