<svg width="432" height="151" viewBox="0 0 432 151" fill="none" xmlns="http://www.w3.org/2000/svg">
<path d="M44.8013 53.0061V56.7021H29.9893V53.7621L37.5493 46.6221C38.352 45.8568 38.8933 45.2035 39.1733 44.6621C39.4533 44.1021 39.5933 43.5515 39.5933 43.0101C39.5933 42.2261 39.3226 41.6288 38.7813 41.2181C38.2586 40.7888 37.484 40.5741 36.4573 40.5741C35.5986 40.5741 34.824 40.7421 34.1333 41.0781C33.4426 41.3955 32.864 41.8808 32.3973 42.5341L29.0933 40.4061C29.8586 39.2675 30.9133 38.3808 32.2573 37.7461C33.6013 37.0928 35.1413 36.7661 36.8773 36.7661C38.3333 36.7661 39.6026 37.0088 40.6853 37.4941C41.7866 37.9608 42.636 38.6328 43.2333 39.5101C43.8493 40.3688 44.1573 41.3861 44.1573 42.5621C44.1573 43.6261 43.9333 44.6248 43.4853 45.5581C43.0373 46.4915 42.1693 47.5555 40.8813 48.7501L36.3733 53.0061H44.8013ZM55.0182 57.0381C53.3942 57.0381 51.9476 56.6368 50.6782 55.8341C49.4089 55.0315 48.4102 53.8741 47.6822 52.3621C46.9729 50.8315 46.6182 49.0115 46.6182 46.9021C46.6182 44.7928 46.9729 42.9821 47.6822 41.4701C48.4102 39.9395 49.4089 38.7728 50.6782 37.9701C51.9476 37.1675 53.3942 36.7661 55.0182 36.7661C56.6422 36.7661 58.0889 37.1675 59.3582 37.9701C60.6276 38.7728 61.6169 39.9395 62.3262 41.4701C63.0542 42.9821 63.4182 44.7928 63.4182 46.9021C63.4182 49.0115 63.0542 50.8315 62.3262 52.3621C61.6169 53.8741 60.6276 55.0315 59.3582 55.8341C58.0889 56.6368 56.6422 57.0381 55.0182 57.0381ZM55.0182 53.2021C56.2129 53.2021 57.1462 52.6888 57.8182 51.6621C58.5089 50.6355 58.8542 49.0488 58.8542 46.9021C58.8542 44.7555 58.5089 43.1688 57.8182 42.1421C57.1462 41.1155 56.2129 40.6021 55.0182 40.6021C53.8422 40.6021 52.9089 41.1155 52.2182 42.1421C51.5462 43.1688 51.2102 44.7555 51.2102 46.9021C51.2102 49.0488 51.5462 50.6355 52.2182 51.6621C52.9089 52.6888 53.8422 53.2021 55.0182 53.2021Z" fill="white"/>
<path d="M352.788 38.8541V58.4541H348.252V42.4941H344.332V38.8541H352.788ZM364.593 58.7901C362.969 58.7901 361.522 58.3888 360.253 57.5861C358.983 56.7834 357.985 55.6261 357.257 54.1141C356.547 52.5834 356.193 50.7634 356.193 48.6541C356.193 46.5448 356.547 44.7341 357.257 43.2221C357.985 41.6914 358.983 40.5248 360.253 39.7221C361.522 38.9194 362.969 38.5181 364.593 38.5181C366.217 38.5181 367.663 38.9194 368.933 39.7221C370.202 40.5248 371.191 41.6914 371.901 43.2221C372.629 44.7341 372.993 46.5448 372.993 48.6541C372.993 50.7634 372.629 52.5834 371.901 54.1141C371.191 55.6261 370.202 56.7834 368.933 57.5861C367.663 58.3888 366.217 58.7901 364.593 58.7901ZM364.593 54.9541C365.787 54.9541 366.721 54.4408 367.393 53.4141C368.083 52.3874 368.429 50.8008 368.429 48.6541C368.429 46.5074 368.083 44.9208 367.393 43.8941C366.721 42.8674 365.787 42.3541 364.593 42.3541C363.417 42.3541 362.483 42.8674 361.793 43.8941C361.121 44.9208 360.785 46.5074 360.785 48.6541C360.785 50.8008 361.121 52.3874 361.793 53.4141C362.483 54.4408 363.417 54.9541 364.593 54.9541ZM383.597 58.7901C381.973 58.7901 380.526 58.3888 379.257 57.5861C377.987 56.7834 376.989 55.6261 376.261 54.1141C375.551 52.5834 375.197 50.7634 375.197 48.6541C375.197 46.5448 375.551 44.7341 376.261 43.2221C376.989 41.6914 377.987 40.5248 379.257 39.7221C380.526 38.9194 381.973 38.5181 383.597 38.5181C385.221 38.5181 386.667 38.9194 387.937 39.7221C389.206 40.5248 390.195 41.6914 390.905 43.2221C391.633 44.7341 391.997 46.5448 391.997 48.6541C391.997 50.7634 391.633 52.5834 390.905 54.1141C390.195 55.6261 389.206 56.7834 387.937 57.5861C386.667 58.3888 385.221 58.7901 383.597 58.7901ZM383.597 54.9541C384.791 54.9541 385.725 54.4408 386.397 53.4141C387.087 52.3874 387.433 50.8008 387.433 48.6541C387.433 46.5074 387.087 44.9208 386.397 43.8941C385.725 42.8674 384.791 42.3541 383.597 42.3541C382.421 42.3541 381.487 42.8674 380.797 43.8941C380.125 44.9208 379.789 46.5074 379.789 48.6541C379.789 50.8008 380.125 52.3874 380.797 53.4141C381.487 54.4408 382.421 54.9541 383.597 54.9541ZM402.6 58.7901C400.976 58.7901 399.53 58.3888 398.26 57.5861C396.991 56.7834 395.992 55.6261 395.264 54.1141C394.555 52.5834 394.2 50.7634 394.2 48.6541C394.2 46.5448 394.555 44.7341 395.264 43.2221C395.992 41.6914 396.991 40.5248 398.26 39.7221C399.53 38.9194 400.976 38.5181 402.6 38.5181C404.224 38.5181 405.671 38.9194 406.94 39.7221C408.21 40.5248 409.199 41.6914 409.908 43.2221C410.636 44.7341 411 46.5448 411 48.6541C411 50.7634 410.636 52.5834 409.908 54.1141C409.199 55.6261 408.21 56.7834 406.94 57.5861C405.671 58.3888 404.224 58.7901 402.6 58.7901ZM402.6 54.9541C403.795 54.9541 404.728 54.4408 405.4 53.4141C406.091 52.3874 406.436 50.8008 406.436 48.6541C406.436 46.5074 406.091 44.9208 405.4 43.8941C404.728 42.8674 403.795 42.3541 402.6 42.3541C401.424 42.3541 400.491 42.8674 399.8 43.8941C399.128 44.9208 398.792 46.5074 398.792 48.6541C398.792 50.8008 399.128 52.3874 399.8 53.4141C400.491 54.4408 401.424 54.9541 402.6 54.9541ZM369.877 68.7891L367.957 70.7391V73.4541H366.457V62.9541H367.957V68.8191L373.657 62.9541H375.367L370.882 67.6791L375.652 73.4541H373.897L369.877 68.7891ZM386.827 65.4291C387.827 65.4291 388.617 65.7191 389.197 66.2991C389.787 66.8791 390.082 67.7391 390.082 68.8791V73.4541H388.642V69.0441C388.642 68.2741 388.462 67.6941 388.102 67.3041C387.752 66.9141 387.247 66.7191 386.587 66.7191C385.857 66.7191 385.277 66.9491 384.847 67.4091C384.417 67.8591 384.202 68.5091 384.202 69.3591V73.4541H382.762V69.0441C382.762 68.2741 382.582 67.6941 382.222 67.3041C381.872 66.9141 381.367 66.7191 380.707 66.7191C379.977 66.7191 379.397 66.9491 378.967 67.4091C378.537 67.8591 378.322 68.5091 378.322 69.3591V73.4541H376.882V65.5041H378.262V66.6891C378.552 66.2791 378.932 65.9691 379.402 65.7591C379.872 65.5391 380.407 65.4291 381.007 65.4291C381.627 65.4291 382.177 65.5541 382.657 65.8041C383.137 66.0541 383.507 66.4191 383.767 66.8991C384.067 66.4391 384.482 66.0791 385.012 65.8191C385.552 65.5591 386.157 65.4291 386.827 65.4291Z" fill="white"/>
<rect x="27.2065" y="79.6191" width="107.818" height="62.8926" stroke="white" stroke-width="2"/>
<path d="M132.762 79.9314L81.1156 112.381L29.4691 79.9314L132.762 79.9314Z" stroke="white" stroke-width="2"/>
<mask id="path-5-inside-1" fill="white">
<path fill-rule="evenodd" clip-rule="evenodd" d="M91.8975 74.3228C92.821 70.6609 93.3115 66.8269 93.3115 62.8784C93.3115 37.1111 72.423 16.2227 46.6557 16.2227C20.8885 16.2227 0 37.1111 0 62.8784C0 79.2227 8.40431 93.604 21.1271 101.937V74.3228H91.8975Z"/>
</mask>
<path d="M91.8975 74.3228V76.3228H93.4558L93.8368 74.8118L91.8975 74.3228ZM21.1271 101.937L20.0314 103.61L23.1271 105.637V101.937H21.1271ZM21.1271 74.3228V72.3228H19.1271V74.3228H21.1271ZM91.3115 62.8784C91.3115 66.6607 90.8417 70.3305 89.9583 73.8337L93.8368 74.8118C94.8002 70.9914 95.3115 66.9932 95.3115 62.8784H91.3115ZM46.6557 18.2227C71.3184 18.2227 91.3115 38.2157 91.3115 62.8784H95.3115C95.3115 36.0066 73.5276 14.2227 46.6557 14.2227V18.2227ZM2 62.8784C2 38.2157 21.9931 18.2227 46.6557 18.2227V14.2227C19.7839 14.2227 -2 36.0066 -2 62.8784H2ZM22.2229 100.264C10.0404 92.2847 2 78.52 2 62.8784H-2C-2 79.9253 6.76824 94.9232 20.0314 103.61L22.2229 100.264ZM23.1271 101.937V74.3228H19.1271V101.937H23.1271ZM21.1271 76.3228H91.8975V72.3228H21.1271V76.3228Z" fill="white" mask="url(#path-5-inside-1)"/>
<rect x="175.958" y="108.57" width="27.4545" height="8.73554" fill="white"/>
<rect x="175.958" y="127.289" width="27.4545" height="8.73554" fill="white"/>
<path d="M240.851 137.273H239.851V138.273H240.851V137.273ZM263.314 101.083L263.203 102.077L263.615 102.123L263.939 101.864L263.314 101.083ZM291.392 78.6201V77.6201H291.042L290.768 77.8393L291.392 78.6201ZM335.694 78.6201L336.302 77.8262L336.033 77.6201H335.694V78.6201ZM365.02 101.083L364.412 101.877L364.688 102.088L365.036 102.083L365.02 101.083ZM403.706 137.273V138.273H404.641L404.704 137.341L403.706 137.273ZM386.084 137.273L385.097 137.435L385.234 138.273H386.084V137.273ZM356.437 137.273V138.273H357.287L357.424 137.435L356.437 137.273ZM292.489 137.273L291.502 137.435L291.639 138.273H292.489V137.273ZM262.842 137.273V138.273H263.691L263.829 137.435L262.842 137.273ZM240.851 138.273H261.442V136.273H240.851V138.273ZM239.851 114.186V137.273H241.851V114.186H239.851ZM263.424 100.089C259.584 99.6625 253.792 99.8131 248.912 101.711C246.462 102.664 244.191 104.077 242.531 106.128C240.858 108.194 239.851 110.85 239.851 114.186H241.851C241.851 111.283 242.716 109.077 244.085 107.386C245.466 105.681 247.408 104.442 249.637 103.575C254.116 101.833 259.556 101.672 263.203 102.077L263.424 100.089ZM290.768 77.8393L262.689 100.302L263.939 101.864L292.017 79.401L290.768 77.8393ZM335.694 77.6201H291.392V79.6201H335.694V77.6201ZM365.629 100.289L336.302 77.8262L335.086 79.414L364.412 101.877L365.629 100.289ZM404.704 137.341C405.132 131.025 403.663 121.6 397.831 113.791C391.96 105.928 381.76 99.8294 365.005 100.083L365.036 102.083C381.227 101.838 390.786 107.699 396.229 114.988C401.712 122.33 403.113 131.25 402.709 137.206L404.704 137.341ZM386.084 138.273H403.706V136.273H386.084V138.273ZM371.26 127.041C378.407 127.041 384.152 131.654 385.097 137.435L387.071 137.112C385.94 130.192 379.202 125.041 371.26 125.041V127.041ZM357.424 137.435C358.368 131.654 364.113 127.041 371.26 127.041V125.041C363.318 125.041 356.581 130.192 355.45 137.112L357.424 137.435ZM292.489 138.273H356.437V136.273H292.489V138.273ZM277.665 127.041C284.812 127.041 290.557 131.654 291.502 137.435L293.476 137.112C292.345 130.192 285.607 125.041 277.665 125.041V127.041ZM263.829 137.435C264.773 131.654 270.518 127.041 277.665 127.041V125.041C269.723 125.041 262.986 130.192 261.855 137.112L263.829 137.435ZM261.442 138.273H262.842V136.273H261.442V138.273Z" fill="white"/>
<circle cx="277.665" cy="137.273" r="8.98347" stroke="white" stroke-width="2"/>
<circle cx="371.26" cy="137.273" r="8.98347" stroke="white" stroke-width="2"/>
<rect x="241.475" y="147.256" width="162.231" height="3.7438" fill="white"/>
<mask id="path-13-inside-2" fill="white">
<path fill-rule="evenodd" clip-rule="evenodd" d="M394.282 103.763C415.994 97.1226 431.785 76.924 431.785 53.0372C431.785 23.7456 408.04 0 378.748 0C349.456 0 325.711 23.7456 325.711 53.0372C325.711 59.8628 327 66.3872 329.349 72.3802H336.942L366.269 94.8432C379.391 94.6444 388.329 98.3984 394.282 103.763Z"/>
</mask>
<path d="M394.282 103.763L392.943 105.249L393.784 106.007L394.867 105.676L394.282 103.763ZM329.349 72.3802L327.487 73.1099L327.984 74.3802H329.349V72.3802ZM336.942 72.3802L338.158 70.7924L337.62 70.3802H336.942V72.3802ZM366.269 94.8432L365.052 96.431L365.604 96.8535L366.299 96.843L366.269 94.8432ZM429.785 53.0372C429.785 76.0202 414.592 95.46 393.697 101.851L394.867 105.676C417.396 98.7852 433.785 77.8277 433.785 53.0372H429.785ZM378.748 2C406.935 2 429.785 24.8501 429.785 53.0372H433.785C433.785 22.641 409.144 -2 378.748 -2V2ZM327.711 53.0372C327.711 24.8501 350.561 2 378.748 2V-2C348.352 -2 323.711 22.641 323.711 53.0372H327.711ZM331.211 71.6505C328.952 65.8862 327.711 59.609 327.711 53.0372H323.711C323.711 60.1165 325.049 66.8881 327.487 73.1099L331.211 71.6505ZM329.349 74.3802H336.942V70.3802H329.349V74.3802ZM335.726 73.9679L365.052 96.431L367.485 93.2555L338.158 70.7924L335.726 73.9679ZM366.299 96.843C379.001 96.6505 387.424 100.275 392.943 105.249L395.621 102.278C389.234 96.5215 379.78 92.6383 366.238 92.8434L366.299 96.843Z" fill="white" mask="url(#path-13-inside-2)"/>
</svg>
