<svg width="174" height="153" viewBox="0 0 174 153" fill="none" xmlns="http://www.w3.org/2000/svg">
<path d="M63.1749 38.9623V71.8623H55.5609V45.0723H48.9809V38.9623H63.1749ZM94.6461 38.9623V43.8973L82.4261 71.8623H74.1541L85.9511 45.1663H75.0471V50.5243H68.2791V38.9623H94.6461ZM123.792 38.9623V43.8973L111.572 71.8623H103.3L115.097 45.1663H104.193V50.5243H97.4246V38.9623H123.792ZM36.8054 93.3973C36.5954 93.5773 36.3354 93.7173 36.0254 93.8173C35.7154 93.9073 35.3954 93.9523 35.0654 93.9523C34.2654 93.9523 33.6454 93.7373 33.2054 93.3073C32.7654 92.8773 32.5454 92.2623 32.5454 91.4623V84.1723H33.9854V85.9123H36.2654V87.0973H33.9854V91.4023C33.9854 91.8323 34.0904 92.1623 34.3004 92.3923C34.5204 92.6223 34.8304 92.7373 35.2304 92.7373C35.6704 92.7373 36.0454 92.6123 36.3554 92.3623L36.8054 93.3973ZM41.6797 93.9523C40.8897 93.9523 40.1797 93.7773 39.5497 93.4273C38.9197 93.0773 38.4247 92.5973 38.0647 91.9873C37.7147 91.3673 37.5397 90.6673 37.5397 89.8873C37.5397 89.1073 37.7147 88.4123 38.0647 87.8023C38.4247 87.1823 38.9197 86.7023 39.5497 86.3623C40.1797 86.0123 40.8897 85.8373 41.6797 85.8373C42.4697 85.8373 43.1747 86.0123 43.7947 86.3623C44.4247 86.7023 44.9147 87.1823 45.2647 87.8023C45.6247 88.4123 45.8047 89.1073 45.8047 89.8873C45.8047 90.6673 45.6247 91.3673 45.2647 91.9873C44.9147 92.5973 44.4247 93.0773 43.7947 93.4273C43.1747 93.7773 42.4697 93.9523 41.6797 93.9523ZM41.6797 92.6923C42.1897 92.6923 42.6447 92.5773 43.0447 92.3473C43.4547 92.1073 43.7747 91.7773 44.0047 91.3573C44.2347 90.9273 44.3497 90.4373 44.3497 89.8873C44.3497 89.3373 44.2347 88.8523 44.0047 88.4323C43.7747 88.0023 43.4547 87.6723 43.0447 87.4423C42.6447 87.2123 42.1897 87.0973 41.6797 87.0973C41.1697 87.0973 40.7097 87.2123 40.2997 87.4423C39.8997 87.6723 39.5797 88.0023 39.3397 88.4323C39.1097 88.8523 38.9947 89.3373 38.9947 89.8873C38.9947 90.4373 39.1097 90.9273 39.3397 91.3573C39.5797 91.7773 39.8997 92.1073 40.2997 92.3473C40.7097 92.5773 41.1697 92.6923 41.6797 92.6923ZM52.0412 85.8373C53.0512 85.8373 53.8512 86.1323 54.4412 86.7223C55.0412 87.3023 55.3412 88.1573 55.3412 89.2873V93.8623H53.9012V89.4523C53.9012 88.6823 53.7162 88.1023 53.3462 87.7123C52.9762 87.3223 52.4462 87.1273 51.7562 87.1273C50.9762 87.1273 50.3612 87.3573 49.9112 87.8173C49.4612 88.2673 49.2362 88.9173 49.2362 89.7673V93.8623H47.7962V85.9123H49.1762V87.1123C49.4662 86.7023 49.8562 86.3873 50.3462 86.1673C50.8462 85.9473 51.4112 85.8373 52.0412 85.8373ZM62.2511 85.8373C63.2611 85.8373 64.0611 86.1323 64.6511 86.7223C65.2511 87.3023 65.5511 88.1573 65.5511 89.2873V93.8623H64.1111V89.4523C64.1111 88.6823 63.9261 88.1023 63.5561 87.7123C63.1861 87.3223 62.6561 87.1273 61.9661 87.1273C61.1861 87.1273 60.5711 87.3573 60.1211 87.8173C59.6711 88.2673 59.4461 88.9173 59.4461 89.7673V93.8623H58.0061V85.9123H59.3861V87.1123C59.6761 86.7023 60.0661 86.3873 60.5561 86.1673C61.0561 85.9473 61.6211 85.8373 62.2511 85.8373ZM71.845 92.6923C72.795 92.6923 73.56 92.3723 74.14 91.7323L74.92 92.6623C74.57 93.0823 74.125 93.4023 73.585 93.6223C73.055 93.8423 72.46 93.9523 71.8 93.9523C70.96 93.9523 70.215 93.7823 69.565 93.4423C68.915 93.0923 68.41 92.6073 68.05 91.9873C67.7 91.3673 67.525 90.6673 67.525 89.8873C67.525 89.1173 67.695 88.4223 68.035 87.8023C68.385 87.1823 68.86 86.7023 69.46 86.3623C70.07 86.0123 70.755 85.8373 71.515 85.8373C72.235 85.8373 72.89 86.0023 73.48 86.3323C74.07 86.6523 74.54 87.1073 74.89 87.6973C75.24 88.2873 75.42 88.9673 75.43 89.7373L69.115 90.9673C69.315 91.5173 69.65 91.9423 70.12 92.2423C70.6 92.5423 71.175 92.6923 71.845 92.6923ZM71.515 87.0523C71.015 87.0523 70.565 87.1673 70.165 87.3973C69.775 87.6273 69.47 87.9523 69.25 88.3723C69.03 88.7823 68.92 89.2623 68.92 89.8123V89.9623L74.005 89.0023C73.875 88.4223 73.585 87.9523 73.135 87.5923C72.685 87.2323 72.145 87.0523 71.515 87.0523ZM79.7246 93.9523C79.0746 93.9523 78.4496 93.8673 77.8496 93.6973C77.2496 93.5173 76.7796 93.2923 76.4396 93.0223L77.0396 91.8823C77.3896 92.1323 77.8146 92.3323 78.3146 92.4823C78.8146 92.6323 79.3196 92.7073 79.8296 92.7073C81.0896 92.7073 81.7196 92.3473 81.7196 91.6273C81.7196 91.3873 81.6346 91.1973 81.4646 91.0573C81.2946 90.9173 81.0796 90.8173 80.8196 90.7573C80.5696 90.6873 80.2096 90.6123 79.7396 90.5323C79.0996 90.4323 78.5746 90.3173 78.1646 90.1873C77.7646 90.0573 77.4196 89.8373 77.1296 89.5273C76.8396 89.2173 76.6946 88.7823 76.6946 88.2223C76.6946 87.5023 76.9946 86.9273 77.5946 86.4973C78.1946 86.0573 78.9996 85.8373 80.0096 85.8373C80.5396 85.8373 81.0696 85.9023 81.5996 86.0323C82.1296 86.1623 82.5646 86.3373 82.9046 86.5573L82.2896 87.6973C81.6396 87.2773 80.8746 87.0673 79.9946 87.0673C79.3846 87.0673 78.9196 87.1673 78.5996 87.3673C78.2796 87.5673 78.1196 87.8323 78.1196 88.1623C78.1196 88.4223 78.2096 88.6273 78.3896 88.7773C78.5696 88.9273 78.7896 89.0373 79.0496 89.1073C79.3196 89.1773 79.6946 89.2573 80.1746 89.3473C80.8146 89.4573 81.3296 89.5773 81.7196 89.7073C82.1196 89.8273 82.4596 90.0373 82.7396 90.3373C83.0196 90.6373 83.1596 91.0573 83.1596 91.5973C83.1596 92.3173 82.8496 92.8923 82.2296 93.3223C81.6196 93.7423 80.7846 93.9523 79.7246 93.9523ZM96.4876 82.7323V93.8623H95.1076V92.6023C94.7876 93.0423 94.3826 93.3773 93.8926 93.6073C93.4026 93.8373 92.8626 93.9523 92.2726 93.9523C91.5026 93.9523 90.8126 93.7823 90.2026 93.4423C89.5926 93.1023 89.1126 92.6273 88.7626 92.0173C88.4226 91.3973 88.2526 90.6873 88.2526 89.8873C88.2526 89.0873 88.4226 88.3823 88.7626 87.7723C89.1126 87.1623 89.5926 86.6873 90.2026 86.3473C90.8126 86.0073 91.5026 85.8373 92.2726 85.8373C92.8426 85.8373 93.3676 85.9473 93.8476 86.1673C94.3276 86.3773 94.7276 86.6923 95.0476 87.1123V82.7323H96.4876ZM92.3926 92.6923C92.8926 92.6923 93.3476 92.5773 93.7576 92.3473C94.1676 92.1073 94.4876 91.7773 94.7176 91.3573C94.9476 90.9273 95.0626 90.4373 95.0626 89.8873C95.0626 89.3373 94.9476 88.8523 94.7176 88.4323C94.4876 88.0023 94.1676 87.6723 93.7576 87.4423C93.3476 87.2123 92.8926 87.0973 92.3926 87.0973C91.8826 87.0973 91.4226 87.2123 91.0126 87.4423C90.6126 87.6723 90.2926 88.0023 90.0526 88.4323C89.8226 88.8523 89.7076 89.3373 89.7076 89.8873C89.7076 90.4373 89.8226 90.9273 90.0526 91.3573C90.2926 91.7773 90.6126 92.1073 91.0126 92.3473C91.4226 92.5773 91.8826 92.6923 92.3926 92.6923ZM102.797 92.6923C103.747 92.6923 104.512 92.3723 105.092 91.7323L105.872 92.6623C105.522 93.0823 105.077 93.4023 104.537 93.6223C104.007 93.8423 103.412 93.9523 102.752 93.9523C101.912 93.9523 101.167 93.7823 100.517 93.4423C99.8672 93.0923 99.3622 92.6073 99.0022 91.9873C98.6522 91.3673 98.4772 90.6673 98.4772 89.8873C98.4772 89.1173 98.6472 88.4223 98.9872 87.8023C99.3372 87.1823 99.8122 86.7023 100.412 86.3623C101.022 86.0123 101.707 85.8373 102.467 85.8373C103.187 85.8373 103.842 86.0023 104.432 86.3323C105.022 86.6523 105.492 87.1073 105.842 87.6973C106.192 88.2873 106.372 88.9673 106.382 89.7373L100.067 90.9673C100.267 91.5173 100.602 91.9423 101.072 92.2423C101.552 92.5423 102.127 92.6923 102.797 92.6923ZM102.467 87.0523C101.967 87.0523 101.517 87.1673 101.117 87.3973C100.727 87.6273 100.422 87.9523 100.202 88.3723C99.9822 88.7823 99.8722 89.2623 99.8722 89.8123V89.9623L104.957 89.0023C104.827 88.4223 104.537 87.9523 104.087 87.5923C103.637 87.2323 103.097 87.0523 102.467 87.0523ZM117.33 93.9823C116.28 93.9823 115.33 93.7523 114.48 93.2923C113.64 92.8223 112.98 92.1823 112.5 91.3723C112.02 90.5523 111.78 89.6323 111.78 88.6123C111.78 87.5923 112.02 86.6773 112.5 85.8673C112.98 85.0473 113.645 84.4073 114.495 83.9473C115.345 83.4773 116.295 83.2423 117.345 83.2423C118.165 83.2423 118.915 83.3823 119.595 83.6623C120.275 83.9323 120.855 84.3373 121.335 84.8773L120.36 85.8223C119.57 84.9923 118.585 84.5773 117.405 84.5773C116.625 84.5773 115.92 84.7523 115.29 85.1023C114.66 85.4523 114.165 85.9373 113.805 86.5573C113.455 87.1673 113.28 87.8523 113.28 88.6123C113.28 89.3723 113.455 90.0623 113.805 90.6823C114.165 91.2923 114.66 91.7723 115.29 92.1223C115.92 92.4723 116.625 92.6473 117.405 92.6473C118.575 92.6473 119.56 92.2273 120.36 91.3873L121.335 92.3323C120.855 92.8723 120.27 93.2823 119.58 93.5623C118.9 93.8423 118.15 93.9823 117.33 93.9823ZM127.995 93.9823C126.935 93.9823 125.98 93.7523 125.13 93.2923C124.28 92.8223 123.61 92.1773 123.12 91.3573C122.64 90.5373 122.4 89.6223 122.4 88.6123C122.4 87.6023 122.64 86.6873 123.12 85.8673C123.61 85.0473 124.28 84.4073 125.13 83.9473C125.98 83.4773 126.935 83.2423 127.995 83.2423C129.045 83.2423 129.995 83.4773 130.845 83.9473C131.695 84.4073 132.36 85.0473 132.84 85.8673C133.32 86.6773 133.56 87.5923 133.56 88.6123C133.56 89.6323 133.32 90.5523 132.84 91.3723C132.36 92.1823 131.695 92.8223 130.845 93.2923C129.995 93.7523 129.045 93.9823 127.995 93.9823ZM127.995 92.6473C128.765 92.6473 129.455 92.4723 130.065 92.1223C130.685 91.7723 131.17 91.2923 131.52 90.6823C131.88 90.0623 132.06 89.3723 132.06 88.6123C132.06 87.8523 131.88 87.1673 131.52 86.5573C131.17 85.9373 130.685 85.4523 130.065 85.1023C129.455 84.7523 128.765 84.5773 127.995 84.5773C127.225 84.5773 126.525 84.7523 125.895 85.1023C125.275 85.4523 124.785 85.9373 124.425 86.5573C124.075 87.1673 123.9 87.8523 123.9 88.6123C123.9 89.3723 124.075 90.0623 124.425 90.6823C124.785 91.2923 125.275 91.7723 125.895 92.1223C126.525 92.4723 127.225 92.6473 127.995 92.6473ZM142.231 92.5573V93.8623H134.686V92.8423L138.961 88.7173C139.481 88.2173 139.831 87.7873 140.011 87.4273C140.191 87.0573 140.281 86.6873 140.281 86.3173C140.281 85.7673 140.086 85.3423 139.696 85.0423C139.316 84.7323 138.766 84.5773 138.046 84.5773C136.886 84.5773 135.991 84.9573 135.361 85.7173L134.341 84.8323C134.751 84.3323 135.286 83.9423 135.946 83.6623C136.616 83.3823 137.361 83.2423 138.181 83.2423C139.281 83.2423 140.156 83.5073 140.806 84.0373C141.456 84.5573 141.781 85.2673 141.781 86.1673C141.781 86.7273 141.661 87.2573 141.421 87.7573C141.181 88.2573 140.726 88.8273 140.056 89.4673L136.846 92.5573H142.231Z" fill="white"/>
<path d="M136.479 103.313H31.3366C27.2134 103.313 0.82478 97.9529 4.948 73.2136C8.24658 53.4221 26.6636 49.2989 35.4599 49.7112C31.8314 42.7842 35.4599 35.7953 37.9338 33.6306C47.8295 24.9719 56.076 29.2326 59.3745 31.9814C64.3224 5.59277 85.9006 0.370023 96.0712 1.05723C121.47 2.37666 130.569 22.2231 131.943 31.9814C137.991 33.1 148.436 38.7068 141.839 52.1852C158.002 57.1331 160.393 72.1141 159.569 78.9861C157.92 98.1179 143.488 103.176 136.479 103.313Z" stroke="white" stroke-width="2"/>
<rect x="47.1802" y="104.256" width="80.4645" height="47.4787" rx="10" stroke="white" stroke-width="2"/>
<path d="M81.6313 117.778L97.9602 127.648L81.8293 137.838L81.6313 117.778Z" stroke="white" stroke-width="2"/>
</svg>
