<svg width="441" height="414" viewBox="0 0 441 414" fill="none" xmlns="http://www.w3.org/2000/svg">
<path d="M162.5 3C140.1 3.8 119.167 18 111.5 25L147 23.5L162.5 3Z" stroke="white" stroke-width="4"/>
<path d="M216.5 11.5C207.7 19.1 199.5 30 196.5 34.5C219.3 34.5 245.667 38.5 256 40.5V15C241.2 12.2 223.5 11.5 216.5 11.5Z" stroke="white" stroke-width="4"/>
<path d="M4 95.5C16 61.9 33.6667 42.8333 41 37.5C31.8 48.7 24.8333 76.1667 22.5 88.5C17.7 89.3 8.16667 93.5 4 95.5Z" stroke="white" stroke-width="4"/>
<path d="M133 61C111 61 93.1667 64.3333 87 66C73 82.4 64.1667 110.5 61.5 122.5C82.3 116.9 106.833 116.5 116.5 117C117.7 102.6 128 73.6667 133 61Z" stroke="white" stroke-width="4"/>
<path d="M50.5 168C41.3 171.6 33.3333 178.167 30.5 181C26.9 219.8 31.6667 243.167 34.5 250C42.5 244.4 51.5 240.667 55 239.5C48.2 209.5 49.1667 179.333 50.5 168Z" stroke="white" stroke-width="4"/>
<path d="M172.5 157.5C148.1 156.7 124.667 161.167 116 163.5C113.6 200.7 118 227.333 120.5 236C132.1 232 158 231.333 169.5 231.5C167.1 207.5 170.5 172.167 172.5 157.5Z" stroke="white" stroke-width="4"/>
<path d="M117 285C107 287.8 101.167 293.5 99.5 296C108.3 318.8 129.5 343.5 139 353L148 348C128 318.4 119 293.667 117 285Z" stroke="white" stroke-width="4"/>
<path d="M183 272.5C156.6 271.7 141.667 275.167 137.5 277C142.7 296.6 160 327.167 168 340C173.2 337.6 187.833 336.333 194.5 336C187.7 322.4 184 288 183 272.5Z" stroke="white" stroke-width="4"/>
<path d="M195 254C192.2 234 196.167 196.333 198.5 180C221.202 180 258.626 185.333 274.5 188L261.5 260.5C238.7 255.3 207.667 254 195 254Z" stroke="white" stroke-width="4"/>
<path d="M282.5 99.5C258.1 94.7 228.667 92.8333 217 92.5C208.2 109.3 201 138.167 198.5 150.5C219.3 149.3 258.833 154.667 276 157.5L282.5 99.5Z" stroke="white" stroke-width="4"/>
<path d="M182 376.5L176 378.5C180 382.5 192 389.5 197.5 392.5C193.5 389.7 185.5 380.667 182 376.5Z" stroke="white" stroke-width="4"/>
<path d="M215.5 371.5L197.5 372.5C207.9 384.9 222.5 396.333 228.5 400.5C219.7 384.9 216.167 374.667 215.5 371.5Z" stroke="white" stroke-width="4"/>
<path d="M259.5 375C247.1 372.2 235.667 371.5 231.5 371.5C236.7 386.3 245.667 402.333 249.5 408.5L259.5 375Z" stroke="white" stroke-width="4"/>
<path d="M298.5 384.5L275.5 378.5C273.5 386.1 267.333 401.667 264.5 408.5C274.5 404.9 291.333 391 298.5 384.5Z" stroke="white" stroke-width="4"/>
<path d="M315.5 389.5C309.5 395.9 297.333 404.833 292 408.5C304 406.5 320.667 399.667 327.5 396.5L315.5 389.5Z" stroke="white" stroke-width="4"/>
<path d="M264.5 357C249.3 354.2 232.5 353.5 226 353.5C220.4 338.3 217.667 304.5 217 289.5C236.6 289.5 265.833 293.833 278 296L264.5 357Z" stroke="white" stroke-width="4"/>
<path d="M295.5 299.5C293.1 315.9 284.5 346.667 280.5 360C292.1 362.4 308.667 367.667 315.5 370C329.1 354.4 344.167 326.833 350 315C338.4 309 308.833 302.167 295.5 299.5Z" stroke="white" stroke-width="4"/>
<path d="M329.5 375C342.708 361.4 359.67 333.333 366.5 321C379.7 325.8 393.333 335.333 398.5 339.5C375.3 367.5 354.167 382.5 346.5 386.5L329.5 375Z" stroke="white" stroke-width="4"/>
<path d="M410 322C393.6 311.6 380.167 305 375.5 303C384.7 288.6 394.667 250.667 398.5 233.5C415.3 240.3 430.5 251.333 436 256C430 286.8 416.167 312.833 410 322Z" stroke="white" stroke-width="4"/>
<path d="M381 227.5C375 258.7 364.167 286.833 359.5 297C329.9 286.2 307.5 281.833 300 281C304.269 262.2 310.445 224.833 313 208.5C345.737 214.1 371.974 223.5 381 227.5Z" stroke="white" stroke-width="4"/>
<path d="M322.5 130.5C322.5 144.1 318.5 174.5 316.5 188C344.9 194 373.333 203.167 384 207C386.4 179 383 155.333 381 147C359.4 138.6 333 132.5 322.5 130.5Z" stroke="white" stroke-width="4"/>
<path d="M400.5 213.5C402.1 183.5 399.833 161.667 398.5 154.5C413.7 160.961 424.5 168.859 428 172C437.2 192 438.5 221.333 438 233.5C431.6 227.9 410.333 217.833 400.5 213.5Z" stroke="white" stroke-width="4"/>
<path d="M393.5 134L387 116.5C398.2 124.1 407.667 136.333 411 141.5C406.2 138.7 397.333 135.333 393.5 134Z" stroke="white" stroke-width="4"/>
<path d="M324 113V89L355 98C365 105.2 372.5 119.667 375 126C355 119.6 332.667 114.667 324 113Z" stroke="white" stroke-width="4"/>
</svg>
