<svg width="126" height="112" viewBox="0 0 126 112" fill="none" xmlns="http://www.w3.org/2000/svg">
<path d="M2 110.5L13.5 16H24.5L30.5 80L62.5 59.5V80L93 59.5V80L124.5 59.5V110.5H2Z" stroke="white" stroke-width="2"/>
<path d="M77.5001 24.5C75.5001 16.9 67.6668 16.6666 64.0001 17.5C64.3335 12 61.8001 1 49.0001 1C36.2001 1 33.6668 10.6667 34.0001 15.5C24.8001 13.9 25.0705 21.1329 25.5001 25C26.0002 29.5 25.6161 28.4855 26.5002 36C27.5002 44.5 26.5001 44.5 28.5001 44.5L68.5001 37C72.3334 36 79.5001 32.1 77.5001 24.5Z" stroke="white" stroke-width="2"/>
</svg>
