<svg width="93" height="111" viewBox="0 0 93 111" fill="none" xmlns="http://www.w3.org/2000/svg">
<path d="M40.8688 3.56391L40.7448 2.57163L40.2778 2.63L40.0252 3.02703L40.8688 3.56391ZM29.9215 20.7669L29.0778 20.23L28.7281 20.7796L29.0894 21.3216L29.9215 20.7669ZM53.3802 2L54.244 2.50387L55.2631 0.75686L53.2562 1.00772L53.3802 2ZM42.4328 20.7669L41.569 20.263L41.2545 20.8022L41.6007 21.3216L42.4328 20.7669ZM48.6884 30.1504L47.8563 30.7051L48.1532 31.1504H48.6884V30.1504ZM59.6358 30.1504V31.1504H60.171L60.4678 30.7051L59.6358 30.1504ZM72.147 11.3835L73.0153 10.8873L72.2125 9.48249L71.315 10.8288L72.147 11.3835ZM78.4028 22.3308L79.2465 22.8677L79.5704 22.3586L79.271 21.8347L78.4028 22.3308ZM67.4554 39.5338V40.5338H68.0044L68.2991 40.0707L67.4554 39.5338ZM51.5152 39.5338V38.5338H50.9197L50.636 39.0574L51.5152 39.5338ZM45.7083 50.25L44.8291 49.7736L43.5263 52.1776L46.0727 51.1812L45.7083 50.25ZM51.5323 47.971L51.8967 48.9023L52.3773 48.7142L52.5025 48.2135L51.5323 47.971ZM53.1511 41.4962V40.4962H52.3703L52.1809 41.2537L53.1511 41.4962ZM63.8345 41.4962L64.8047 41.2537L64.6153 40.4962H63.8345V41.4962ZM65.4532 47.971L64.4831 48.2135L64.6049 48.7009L65.0686 48.8941L65.4532 47.971ZM73.223 51.2084L72.8384 52.1315L73.3151 52.3301L73.753 52.0564L73.223 51.2084ZM78.4029 47.971L79.11 47.2639L78.5474 46.7014L77.8729 47.123L78.4029 47.971ZM85.8489 55.4171L86.6969 55.9471L87.1185 55.2725L86.556 54.7099L85.8489 55.4171ZM82.6115 60.5969L81.7635 60.0669L81.4898 60.5048L81.6884 60.9815L82.6115 60.5969ZM85.8489 68.3667L84.9258 68.7513L85.1161 69.2079L85.5944 69.3338L85.8489 68.3667ZM92 69.9854H93V69.2145L92.2545 69.0183L92 69.9854ZM92 80.6689L92.2545 81.6359L93 81.4397V80.6689H92ZM85.8489 82.2876L85.5944 81.3205L85.1029 81.4498L84.9176 81.9232L85.8489 82.2876ZM82.9352 89.7336L82.004 89.3692L81.8369 89.7962L82.0514 90.2015L82.9352 89.7336ZM85.8489 95.2372L86.5709 95.9291L87.0706 95.4076L86.7327 94.7693L85.8489 95.2372ZM78.4029 103.007L77.8958 103.869L78.5776 104.27L79.1248 103.699L78.4029 103.007ZM72.8993 99.7696L73.4063 98.9076L72.9949 98.6657L72.5481 98.8332L72.8993 99.7696ZM65.1295 102.683L64.7783 101.747L64.2579 101.942L64.1489 102.487L65.1295 102.683ZM63.8345 109.158V110.158H64.6543L64.8151 109.354L63.8345 109.158ZM52.8273 109.158L51.8467 109.354L52.0075 110.158H52.8273V109.158ZM51.5323 102.683L52.5129 102.487L52.4039 101.942L51.8835 101.747L51.5323 102.683ZM43.7626 99.7696L44.1137 98.8332L43.6669 98.6657L43.2555 98.9076L43.7626 99.7696ZM38.259 103.007L37.5519 103.714L38.099 104.261L38.766 103.869L38.259 103.007ZM30.4892 95.2372L29.6496 94.6939L29.2104 95.3727L29.7821 95.9443L30.4892 95.2372ZM34.0503 89.7336L34.8899 90.2768L35.1812 89.8266L34.9674 89.3349L34.0503 89.7336ZM30.8129 82.2876L31.73 81.8888L31.5366 81.4439L31.0674 81.3205L30.8129 82.2876ZM28.6552 81.7197L28.9097 80.7527L28.1501 80.5528L27.776 81.2433L28.6552 81.7197ZM13.6606 109.391L13.1842 110.27L14.0634 110.746L14.5398 109.867L13.6606 109.391ZM2 103.072L1.12079 102.596L0.644356 103.475L1.52357 103.951L2 103.072ZM39.1219 34.5674L40.0011 35.0438L40.2882 34.514L39.9539 34.0127L39.1219 34.5674ZM40.0252 3.02703L29.0778 20.23L30.7651 21.3038L41.7125 4.10079L40.0252 3.02703ZM53.2562 1.00772L40.7448 2.57163L40.9929 4.55619L53.5043 2.99228L53.2562 1.00772ZM43.2965 21.2708L54.244 2.50387L52.5165 1.49613L41.569 20.263L43.2965 21.2708ZM49.5204 29.5957L43.2648 20.2122L41.6007 21.3216L47.8563 30.7051L49.5204 29.5957ZM59.6358 29.1504H48.6884V31.1504H59.6358V29.1504ZM71.315 10.8288L58.8037 29.5957L60.4678 30.7051L72.9791 11.9382L71.315 10.8288ZM79.271 21.8347L73.0153 10.8873L71.2788 11.8796L77.5346 22.827L79.271 21.8347ZM68.2991 40.0707L79.2465 22.8677L77.5591 21.794L66.6118 38.997L68.2991 40.0707ZM51.5152 40.5338H67.4554V38.5338H51.5152V40.5338ZM46.5875 50.7264L52.3944 40.0103L50.636 39.0574L44.8291 49.7736L46.5875 50.7264ZM51.1679 47.0398L45.3439 49.3188L46.0727 51.1812L51.8967 48.9023L51.1679 47.0398ZM52.1809 41.2537L50.5622 47.7285L52.5025 48.2135L54.1212 41.7387L52.1809 41.2537ZM63.8345 40.4962H53.1511V42.4962H63.8345V40.4962ZM66.4234 47.7285L64.8047 41.2537L62.8644 41.7387L64.4831 48.2135L66.4234 47.7285ZM73.6076 50.2853L65.8378 47.0479L65.0686 48.8941L72.8384 52.1315L73.6076 50.2853ZM77.8729 47.123L72.693 50.3604L73.753 52.0564L78.9329 48.819L77.8729 47.123ZM86.556 54.7099L79.11 47.2639L77.6957 48.6781L85.1418 56.1242L86.556 54.7099ZM83.4595 61.1269L86.6969 55.9471L85.0009 54.8871L81.7635 60.0669L83.4595 61.1269ZM86.772 67.9821L83.5346 60.2123L81.6884 60.9815L84.9258 68.7513L86.772 67.9821ZM92.2545 69.0183L86.1034 67.3996L85.5944 69.3338L91.7455 70.9525L92.2545 69.0183ZM93 80.6689V69.9854H91V80.6689H93ZM86.1034 83.2546L92.2545 81.6359L91.7455 79.7018L85.5944 81.3205L86.1034 83.2546ZM83.8665 90.098L86.7801 82.6519L84.9176 81.9232L82.004 89.3692L83.8665 90.098ZM86.7327 94.7693L83.819 89.2657L82.0514 90.2015L84.9651 95.7051L86.7327 94.7693ZM79.1248 103.699L86.5709 95.9291L85.1269 94.5453L77.6809 102.315L79.1248 103.699ZM72.3922 100.632L77.8958 103.869L78.9099 102.145L73.4063 98.9076L72.3922 100.632ZM65.4806 103.62L73.2504 100.706L72.5481 98.8332L64.7783 101.747L65.4806 103.62ZM64.8151 109.354L66.1101 102.879L64.1489 102.487L62.8539 108.962L64.8151 109.354ZM52.8273 110.158H63.8345V108.158H52.8273V110.158ZM50.5518 102.879L51.8467 109.354L53.8079 108.962L52.5129 102.487L50.5518 102.879ZM43.4114 100.706L51.1812 103.62L51.8835 101.747L44.1137 98.8332L43.4114 100.706ZM38.766 103.869L44.2696 100.632L43.2555 98.9076L37.7519 102.145L38.766 103.869ZM29.7821 95.9443L37.5519 103.714L38.9661 102.3L31.1963 94.5301L29.7821 95.9443ZM33.2108 89.1903L29.6496 94.6939L31.3288 95.7804L34.8899 90.2768L33.2108 89.1903ZM29.8959 82.6863L33.1333 90.1323L34.9674 89.3349L31.73 81.8888L29.8959 82.6863ZM28.4007 82.6868L30.5584 83.2546L31.0674 81.3205L28.9097 80.7527L28.4007 82.6868ZM14.5398 109.867L29.5344 82.1962L27.776 81.2433L12.7814 108.914L14.5398 109.867ZM1.52357 103.951L13.1842 110.27L14.137 108.511L2.47643 102.193L1.52357 103.951ZM38.2427 34.0909L1.12079 102.596L2.87921 103.548L40.0011 35.0438L38.2427 34.0909ZM29.0894 21.3216L38.2898 35.1221L39.9539 34.0127L30.7535 20.2122L29.0894 21.3216ZM77.4028 75.1655C77.4028 85.6986 68.8641 94.2374 58.3309 94.2374V96.2374C69.9686 96.2374 79.4028 86.8032 79.4028 75.1655H77.4028ZM58.3309 56.0935C68.8641 56.0935 77.4028 64.6323 77.4028 75.1655H79.4028C79.4028 63.5277 69.9686 54.0935 58.3309 54.0935V56.0935ZM39.259 75.1655C39.259 64.6323 47.7978 56.0935 58.3309 56.0935V54.0935C46.6932 54.0935 37.259 63.5277 37.259 75.1655H39.259ZM58.3309 94.2374C47.7978 94.2374 39.259 85.6986 39.259 75.1655H37.259C37.259 86.8032 46.6932 96.2374 58.3309 96.2374V94.2374Z" fill="white"/>
</svg>
