<svg width="220" height="152" viewBox="0 0 220 152" fill="none" xmlns="http://www.w3.org/2000/svg">
<path d="M76.2289 78.9203V111.82H68.6149V85.0303H62.0349V78.9203H76.2289ZM96.0442 112.384C93.3182 112.384 90.8899 111.711 88.7592 110.363C86.6285 109.016 84.9522 107.073 83.7302 104.535C82.5395 101.966 81.9442 98.911 81.9442 95.3703C81.9442 91.8296 82.5395 88.7903 83.7302 86.2523C84.9522 83.683 86.6285 81.7246 88.7592 80.3773C90.8899 79.03 93.3182 78.3563 96.0442 78.3563C98.7702 78.3563 101.199 79.03 103.329 80.3773C105.46 81.7246 107.121 83.683 108.311 86.2523C109.533 88.7903 110.144 91.8296 110.144 95.3703C110.144 98.911 109.533 101.966 108.311 104.535C107.121 107.073 105.46 109.016 103.329 110.363C101.199 111.711 98.7702 112.384 96.0442 112.384ZM96.0442 105.945C98.0495 105.945 99.6162 105.084 100.744 103.36C101.904 101.637 102.483 98.9736 102.483 95.3703C102.483 91.767 101.904 89.1036 100.744 87.3803C99.6162 85.657 98.0495 84.7953 96.0442 84.7953C94.0702 84.7953 92.5035 85.657 91.3442 87.3803C90.2162 89.1036 89.6522 91.767 89.6522 95.3703C89.6522 98.9736 90.2162 101.637 91.3442 103.36C92.5035 105.084 94.0702 105.945 96.0442 105.945ZM128.94 97.2943V109.39C128.94 112.054 128.247 114.034 126.861 115.33C125.475 116.626 123.45 117.274 120.786 117.274C119.382 117.274 118.05 117.103 116.79 116.761C115.53 116.419 114.486 115.924 113.658 115.276L115.332 112.252C115.944 112.756 116.718 113.152 117.654 113.44C118.59 113.746 119.526 113.899 120.462 113.899C121.92 113.899 122.991 113.566 123.675 112.9C124.377 112.252 124.728 111.262 124.728 109.93V109.309C123.63 110.515 122.1 111.118 120.138 111.118C118.806 111.118 117.582 110.83 116.466 110.254C115.368 109.66 114.495 108.832 113.847 107.77C113.199 106.708 112.875 105.484 112.875 104.098C112.875 102.712 113.199 101.488 113.847 100.426C114.495 99.3643 115.368 98.5453 116.466 97.9693C117.582 97.3753 118.806 97.0783 120.138 97.0783C122.244 97.0783 123.846 97.7713 124.944 99.1573V97.2943H128.94ZM120.975 107.662C122.091 107.662 123 107.338 123.702 106.69C124.422 106.024 124.782 105.16 124.782 104.098C124.782 103.036 124.422 102.181 123.702 101.533C123 100.867 122.091 100.534 120.975 100.534C119.859 100.534 118.941 100.867 118.221 101.533C117.501 102.181 117.141 103.036 117.141 104.098C117.141 105.16 117.501 106.024 118.221 106.69C118.941 107.338 119.859 107.662 120.975 107.662ZM76.4186 122.948V134.82H75.3306V133.156C74.9893 133.722 74.536 134.154 73.9706 134.452C73.416 134.751 72.7866 134.9 72.0826 134.9C71.2933 134.9 70.5786 134.719 69.9386 134.356C69.2986 133.994 68.7973 133.487 68.4346 132.836C68.072 132.186 67.8906 131.444 67.8906 130.612C67.8906 129.78 68.072 129.039 68.4346 128.388C68.7973 127.738 69.2986 127.236 69.9386 126.884C70.5786 126.522 71.2933 126.34 72.0826 126.34C72.7653 126.34 73.3786 126.484 73.9226 126.772C74.4773 127.05 74.9306 127.46 75.2826 128.004V122.948H76.4186ZM72.1786 133.892C72.7653 133.892 73.2933 133.759 73.7626 133.492C74.2426 133.215 74.616 132.826 74.8826 132.324C75.16 131.823 75.2986 131.252 75.2986 130.612C75.2986 129.972 75.16 129.402 74.8826 128.9C74.616 128.399 74.2426 128.015 73.7626 127.748C73.2933 127.471 72.7653 127.332 72.1786 127.332C71.5813 127.332 71.0426 127.471 70.5626 127.748C70.0933 128.015 69.72 128.399 69.4426 128.9C69.176 129.402 69.0426 129.972 69.0426 130.612C69.0426 131.252 69.176 131.823 69.4426 132.324C69.72 132.826 70.0933 133.215 70.5626 133.492C71.0426 133.759 71.5813 133.892 72.1786 133.892ZM83.1824 133.892C83.7051 133.892 84.1851 133.802 84.6224 133.62C85.0704 133.428 85.4491 133.151 85.7584 132.788L86.3984 133.524C86.0251 133.972 85.5611 134.314 85.0064 134.548C84.4517 134.783 83.8384 134.9 83.1664 134.9C82.3024 134.9 81.5344 134.719 80.8624 134.356C80.1904 133.983 79.6677 133.471 79.2944 132.82C78.9211 132.17 78.7344 131.434 78.7344 130.612C78.7344 129.791 78.9104 129.055 79.2624 128.404C79.6251 127.754 80.1211 127.247 80.7504 126.884C81.3797 126.522 82.0944 126.34 82.8944 126.34C83.6411 126.34 84.3131 126.511 84.9104 126.852C85.5184 127.194 85.9984 127.668 86.3504 128.276C86.7131 128.884 86.9051 129.578 86.9264 130.356L80.0144 131.7C80.2277 132.383 80.6117 132.922 81.1664 133.316C81.7317 133.7 82.4037 133.892 83.1824 133.892ZM82.8944 127.316C82.3077 127.316 81.7797 127.455 81.3104 127.732C80.8517 127.999 80.4891 128.378 80.2224 128.868C79.9664 129.348 79.8384 129.903 79.8384 130.532C79.8384 130.692 79.8437 130.81 79.8544 130.884L85.7904 129.732C85.6624 129.028 85.3371 128.452 84.8144 128.004C84.2917 127.546 83.6517 127.316 82.8944 127.316ZM98.5301 134.916C97.4208 134.916 96.4181 134.671 95.5221 134.18C94.6368 133.69 93.9381 133.012 93.4261 132.148C92.9248 131.274 92.6741 130.298 92.6741 129.22C92.6741 128.143 92.9248 127.172 93.4261 126.308C93.9381 125.434 94.6421 124.751 95.5381 124.26C96.4341 123.77 97.4368 123.524 98.5461 123.524C99.3781 123.524 100.146 123.663 100.85 123.94C101.554 124.218 102.151 124.623 102.642 125.156L101.89 125.908C101.015 125.023 99.9115 124.58 98.5781 124.58C97.6928 124.58 96.8875 124.783 96.1621 125.188C95.4368 125.594 94.8661 126.148 94.4501 126.852C94.0448 127.556 93.8421 128.346 93.8421 129.22C93.8421 130.095 94.0448 130.884 94.4501 131.588C94.8661 132.292 95.4368 132.847 96.1621 133.252C96.8875 133.658 97.6928 133.86 98.5781 133.86C99.9221 133.86 101.026 133.412 101.89 132.516L102.642 133.268C102.151 133.802 101.549 134.212 100.834 134.5C100.13 134.778 99.3621 134.916 98.5301 134.916ZM109.828 134.916C108.718 134.916 107.71 134.671 106.804 134.18C105.908 133.679 105.204 132.996 104.692 132.132C104.19 131.268 103.94 130.298 103.94 129.22C103.94 128.143 104.19 127.172 104.692 126.308C105.204 125.444 105.908 124.767 106.804 124.276C107.71 123.775 108.718 123.524 109.828 123.524C110.937 123.524 111.934 123.77 112.82 124.26C113.716 124.751 114.42 125.434 114.932 126.308C115.444 127.172 115.7 128.143 115.7 129.22C115.7 130.298 115.444 131.274 114.932 132.148C114.42 133.012 113.716 133.69 112.82 134.18C111.934 134.671 110.937 134.916 109.828 134.916ZM109.828 133.86C110.713 133.86 111.513 133.663 112.228 133.268C112.942 132.863 113.502 132.308 113.908 131.604C114.313 130.89 114.516 130.095 114.516 129.22C114.516 128.346 114.313 127.556 113.908 126.852C113.502 126.138 112.942 125.583 112.228 125.188C111.513 124.783 110.713 124.58 109.828 124.58C108.942 124.58 108.137 124.783 107.412 125.188C106.697 125.583 106.132 126.138 105.716 126.852C105.31 127.556 105.108 128.346 105.108 129.22C105.108 130.095 105.31 130.89 105.716 131.604C106.132 132.308 106.697 132.863 107.412 133.268C108.137 133.663 108.942 133.86 109.828 133.86ZM124.853 133.796V134.82H116.997V134.004L121.653 129.444C122.24 128.868 122.635 128.372 122.837 127.956C123.051 127.53 123.157 127.103 123.157 126.676C123.157 126.015 122.928 125.503 122.469 125.14C122.021 124.767 121.376 124.58 120.533 124.58C119.221 124.58 118.203 124.996 117.477 125.828L116.661 125.124C117.099 124.612 117.653 124.218 118.325 123.94C119.008 123.663 119.776 123.524 120.629 123.524C121.771 123.524 122.672 123.796 123.333 124.34C124.005 124.874 124.341 125.61 124.341 126.548C124.341 127.124 124.213 127.679 123.957 128.212C123.701 128.746 123.216 129.359 122.501 130.052L118.693 133.796H124.853Z" fill="white"/>
<path d="M151.489 151H35.4198C30.868 151 1.73697 144.712 6.2887 115.69C9.93008 92.4721 30.2611 87.635 39.9715 88.1187C35.966 79.9925 39.9715 71.7937 42.7025 69.2543C53.6267 59.0965 62.7301 64.0948 66.3715 67.3195C71.8336 36.3625 95.6543 30.2356 106.882 31.0417C134.921 32.5896 144.965 55.8719 146.482 67.3195L133.737 83.2817L150.578 98.7603L157.406 91.021C175.249 96.8254 177.889 114.4 176.978 122.462C175.158 144.906 159.227 150.839 151.489 151Z" stroke="white" stroke-width="2"/>
<mask id="path-3-inside-1" fill="white">
<path fill-rule="evenodd" clip-rule="evenodd" d="M192.44 57.109C207.301 57.109 219.348 44.3247 219.348 28.5545C219.348 12.7843 207.301 0 192.44 0C177.579 0 165.531 12.7843 165.531 28.5545C165.531 36.3187 168.451 43.3592 173.19 48.5066L167.812 54.6891L163.707 50.8173L138.167 83.2436L150.481 93.8911L176.477 61.9487L171.917 58.077L177.153 52.057C181.495 55.2428 186.762 57.109 192.44 57.109Z"/>
</mask>
<path d="M173.19 48.5066L174.699 49.8192L175.874 48.4688L174.661 47.152L173.19 48.5066ZM167.812 54.6891L166.44 56.144L167.954 57.5728L169.321 56.0017L167.812 54.6891ZM163.707 50.8173L165.08 49.3624L163.489 47.8621L162.136 49.5798L163.707 50.8173ZM138.167 83.2436L136.596 82.0061L135.414 83.5069L136.859 84.7565L138.167 83.2436ZM150.481 93.8911L149.173 95.4039L150.732 96.7516L152.032 95.1535L150.481 93.8911ZM176.477 61.9487L178.029 63.2112L179.265 61.6918L177.772 60.4241L176.477 61.9487ZM171.917 58.077L170.408 56.7643L169.079 58.2916L170.622 59.6016L171.917 58.077ZM177.153 52.057L178.336 50.4445L176.852 49.3555L175.644 50.7444L177.153 52.057ZM217.348 28.5545C217.348 43.3337 206.086 55.109 192.44 55.109V59.109C208.516 59.109 221.348 45.3157 221.348 28.5545H217.348ZM192.44 2C206.086 2 217.348 13.7753 217.348 28.5545H221.348C221.348 11.7932 208.516 -2 192.44 -2V2ZM167.531 28.5545C167.531 13.7753 178.793 2 192.44 2V-2C176.364 -2 163.531 11.7932 163.531 28.5545H167.531ZM174.661 47.152C170.26 42.3707 167.531 35.8126 167.531 28.5545H163.531C163.531 36.8248 166.643 44.3477 171.719 49.8611L174.661 47.152ZM169.321 56.0017L174.699 49.8192L171.681 47.1939L166.303 53.3765L169.321 56.0017ZM162.335 52.2722L166.44 56.144L169.184 53.2342L165.08 49.3624L162.335 52.2722ZM139.738 84.4811L165.278 52.0548L162.136 49.5798L136.596 82.0061L139.738 84.4811ZM151.789 92.3782L139.475 81.7307L136.859 84.7565L149.173 95.4039L151.789 92.3782ZM174.926 60.6863L148.93 92.6286L152.032 95.1535L178.029 63.2112L174.926 60.6863ZM170.622 59.6016L175.183 63.4734L177.772 60.4241L173.211 56.5523L170.622 59.6016ZM175.644 50.7444L170.408 56.7643L173.426 59.3896L178.662 53.3696L175.644 50.7444ZM192.44 55.109C187.21 55.109 182.353 53.3923 178.336 50.4445L175.97 53.6694C180.636 57.0934 186.314 59.109 192.44 59.109V55.109Z" fill="white" mask="url(#path-3-inside-1)"/>
<path d="M213.885 28.5546C213.885 41.16 204.306 51.2693 192.622 51.2693C180.937 51.2693 171.359 41.16 171.359 28.5546C171.359 15.9491 180.937 5.83984 192.622 5.83984C204.306 5.83984 213.885 15.9491 213.885 28.5546Z" stroke="white" stroke-width="2"/>
</svg>
