<svg width="213" height="199" viewBox="0 0 213 199" fill="none" xmlns="http://www.w3.org/2000/svg">
<path d="M123.816 84.6196C125.995 83.535 130.764 80.8365 132.405 78.719" stroke="white" stroke-width="2"/>
<path d="M124.816 105.458C127.387 106.303 133.587 108.008 137.825 108.067" stroke="white" stroke-width="2"/>
<path d="M82.3809 109.749C79.5408 111.293 73.2365 114.941 70.7406 117.182" stroke="white" stroke-width="2"/>
<path d="M79.0724 92.3937C75.864 91.5848 68.7658 90.0153 66.0407 90.2081" stroke="white" stroke-width="2"/>
<path d="M92.0815 75.2776C91.3607 72.9059 88.8914 67.5557 84.7803 65.1289" stroke="white" stroke-width="2"/>
<path d="M109.114 74.0734C109.828 72.6272 111.604 68.778 112.998 64.9506" stroke="white" stroke-width="2"/>
<path d="M107.881 120.665L107.828 121.663L107.828 121.663L107.881 120.665ZM108.091 116.771L108.224 115.78L108.184 115.775L108.144 115.773L108.091 116.771ZM101.958 116.442L102.012 115.443L101.013 115.389L100.96 116.388L101.958 116.442ZM101.958 116.442L101.904 117.44L102.903 117.494L102.957 116.496L101.958 116.442ZM96.8813 116.169L96.935 115.17L96.8813 116.169ZM96.6719 120.062L96.5387 121.053L96.5783 121.058L96.6182 121.061L96.6719 120.062ZM102.805 120.392L102.751 121.391L103.749 121.444L103.803 120.446L102.805 120.392ZM102.805 120.392L102.858 119.393L101.86 119.339L101.806 120.338L102.805 120.392ZM109.098 118.863C109.086 119.071 109.032 119.194 108.981 119.272C108.927 119.354 108.847 119.428 108.734 119.491C108.484 119.631 108.151 119.678 107.935 119.666L107.828 121.663C108.316 121.69 109.05 121.607 109.712 121.236C110.43 120.833 111.034 120.097 111.095 118.97L109.098 118.863ZM107.958 117.763C108.172 117.791 108.511 117.901 108.763 118.102C108.976 118.273 109.118 118.491 109.098 118.863L111.095 118.97C111.155 117.852 110.645 117.045 110.011 116.539C109.415 116.064 108.711 115.846 108.224 115.78L107.958 117.763ZM101.904 117.44L108.037 117.77L108.144 115.773L102.012 115.443L101.904 117.44ZM102.957 116.496L102.957 116.495L100.96 116.388L100.959 116.388L102.957 116.496ZM96.8276 117.167L101.904 117.44L102.012 115.443L96.935 115.17L96.8276 117.167ZM95.665 117.971C95.6762 117.763 95.7302 117.639 95.7816 117.561C95.8357 117.479 95.9153 117.406 96.0289 117.342C96.2782 117.202 96.6114 117.156 96.8276 117.167L96.935 115.17C96.4463 115.144 95.7122 115.227 95.0503 115.598C94.3328 116 93.7285 116.736 93.6679 117.863L95.665 117.971ZM96.8051 119.071C96.5907 119.042 96.2515 118.932 95.9999 118.731C95.7864 118.561 95.645 118.343 95.665 117.971L93.6679 117.863C93.6077 118.981 94.1181 119.788 94.7519 120.294C95.3476 120.77 96.0512 120.988 96.5387 121.053L96.8051 119.071ZM102.858 119.393L96.7256 119.064L96.6182 121.061L102.751 121.391L102.858 119.393ZM101.806 120.338L101.806 120.338L103.803 120.446L103.803 120.445L101.806 120.338ZM107.935 119.666L102.858 119.393L102.751 121.39L107.828 121.663L107.935 119.666Z" fill="white"/>
<path d="M99.0077 125.307L99.0614 124.308L99.0077 125.307ZM98.9296 126.759L98.8202 127.753L98.848 127.756L98.8759 127.757L98.9296 126.759ZM101.64 126.905L102.639 126.958L102.693 125.96L101.694 125.906L101.64 126.905ZM101.64 126.905L100.642 126.851L100.588 127.85L101.587 127.903L101.64 126.905ZM104.917 127.081L104.863 128.08L104.863 128.08L104.917 127.081ZM104.995 125.629L105.104 124.635L105.076 124.632L105.049 124.631L104.995 125.629ZM102.284 125.483L101.285 125.43L101.232 126.428L102.23 126.482L102.284 125.483ZM102.284 125.483L103.282 125.537L103.336 124.538L102.338 124.485L102.284 125.483ZM98.8391 125.994C98.8367 126.04 98.8254 126.096 98.8002 126.153C98.7752 126.211 98.7429 126.255 98.7129 126.287C98.6579 126.346 98.6196 126.354 98.6491 126.343C98.6746 126.333 98.7229 126.32 98.7904 126.312C98.8564 126.304 98.9165 126.304 98.954 126.306L99.0614 124.308C98.7847 124.294 98.3508 124.317 97.9392 124.473C97.5248 124.63 96.8876 125.04 96.842 125.887L98.8391 125.994ZM99.0389 125.765C99.0013 125.761 98.9407 125.75 98.8743 125.731C98.8067 125.711 98.7563 125.69 98.7266 125.673C98.6934 125.654 98.7195 125.661 98.758 125.714C98.7792 125.744 98.8028 125.786 98.8194 125.84C98.8362 125.895 98.8416 125.948 98.8391 125.994L96.842 125.887C96.7975 126.714 97.3624 127.198 97.7396 127.412C98.1215 127.629 98.5434 127.722 98.8202 127.753L99.0389 125.765ZM101.694 125.906L98.9833 125.76L98.8759 127.757L101.587 127.903L101.694 125.906ZM102.639 126.959L102.639 126.958L100.642 126.851L100.642 126.851L102.639 126.959ZM104.97 126.082L101.694 125.906L101.587 127.903L104.863 128.08L104.97 126.082ZM105.085 126.394C105.088 126.348 105.099 126.292 105.124 126.235C105.149 126.177 105.181 126.133 105.211 126.101C105.266 126.042 105.305 126.034 105.275 126.045C105.25 126.055 105.201 126.068 105.134 126.076C105.068 126.084 105.008 126.085 104.97 126.082L104.863 128.08C105.14 128.094 105.574 128.071 105.985 127.915C106.4 127.758 107.037 127.348 107.082 126.501L105.085 126.394ZM104.885 126.623C104.923 126.627 104.984 126.638 105.05 126.657C105.118 126.677 105.168 126.698 105.198 126.715C105.231 126.734 105.205 126.727 105.166 126.674C105.145 126.644 105.122 126.602 105.105 126.548C105.088 126.493 105.083 126.44 105.085 126.394L107.082 126.501C107.127 125.674 106.562 125.19 106.185 124.976C105.803 124.759 105.381 124.666 105.104 124.635L104.885 126.623ZM102.23 126.482L104.941 126.628L105.049 124.631L102.338 124.485L102.23 126.482ZM101.285 125.429L101.285 125.43L103.282 125.537L103.282 125.537L101.285 125.429ZM98.954 126.306L102.23 126.482L102.338 124.485L99.0614 124.308L98.954 126.306Z" fill="white"/>
<path d="M107.607 125.741L107.553 126.739L107.553 126.739L107.607 125.741ZM107.869 120.877L108.022 119.889L107.972 119.881L107.923 119.878L107.869 120.877ZM101.736 120.547L101.79 119.548L100.791 119.495L100.738 120.493L101.736 120.547ZM101.736 120.548L101.682 121.546L102.681 121.6L102.735 120.602L101.736 120.548ZM96.6606 120.275L96.6069 121.273L96.6606 120.275ZM96.3989 125.139L96.2461 126.127L96.2954 126.135L96.3452 126.137L96.3989 125.139ZM102.532 125.469L102.478 126.467L103.476 126.521L103.53 125.522L102.532 125.469ZM102.532 125.468L102.585 124.469L101.587 124.415L101.533 125.414L102.532 125.468ZM108.848 123.475C108.814 124.118 108.572 124.392 108.376 124.53C108.134 124.702 107.833 124.751 107.661 124.742L107.553 126.739C108.086 126.768 108.855 126.642 109.532 126.163C110.255 125.651 110.78 124.8 110.846 123.582L108.848 123.475ZM107.716 121.865C107.888 121.892 108.205 122.007 108.454 122.255C108.671 122.471 108.883 122.829 108.848 123.475L110.846 123.582C110.911 122.367 110.485 121.454 109.863 120.836C109.273 120.25 108.551 119.97 108.022 119.889L107.716 121.865ZM101.682 121.545L107.815 121.875L107.923 119.878L101.79 119.548L101.682 121.545ZM102.735 120.602L102.735 120.601L100.738 120.493L100.737 120.494L102.735 120.602ZM96.6069 121.273L101.682 121.546L101.79 119.549L96.7143 119.276L96.6069 121.273ZM95.4193 122.541C95.4539 121.898 95.696 121.624 95.8917 121.485C96.1336 121.314 96.4347 121.264 96.6069 121.273L96.7143 119.276C96.1815 119.248 95.4128 119.374 94.736 119.853C94.013 120.365 93.4877 121.216 93.4222 122.434L95.4193 122.541ZM96.5517 124.15C96.3796 124.124 96.0632 124.008 95.8142 123.761C95.597 123.545 95.3845 123.187 95.4193 122.541L93.4222 122.434C93.3568 123.649 93.7829 124.562 94.4046 125.18C94.9944 125.766 95.7172 126.045 96.2461 126.127L96.5517 124.15ZM102.585 124.47L96.4527 124.14L96.3452 126.137L102.478 126.467L102.585 124.47ZM101.533 125.414L101.533 125.415L103.53 125.522L103.53 125.521L101.533 125.414ZM107.661 124.742L102.585 124.469L102.478 126.466L107.553 126.739L107.661 124.742Z" fill="white"/>
<path d="M122.746 97.7119C122.18 108.236 113.002 116.334 102.205 115.753C91.4078 115.173 83.1515 106.137 83.7177 95.6124C84.2838 85.088 93.4618 76.9899 104.259 77.5708C115.056 78.1516 123.312 87.1875 122.746 97.7119Z" stroke="white" stroke-width="2"/>
<path d="M90.9917 103.428C92.4698 102.235 95.6556 99.5222 96.5743 98.2143C97.7227 96.5794 96.3334 94.8079 94.3733 95.7629C92.4131 96.7179 91.7285 101.559 94.3526 104.033C96.4518 106.012 99.8145 103.691 101.233 102.282C102.211 101.204 104.419 98.2544 105.438 95.0855C106.712 91.1244 103.505 91.5882 102.791 93.0343C102.077 94.4805 100.906 96.5382 101.736 100.825C102.4 104.254 106.068 105.723 107.819 106.03C108.865 106.298 111.278 106.386 112.562 104.588M112.562 104.588C113.846 102.791 113.717 100.197 113.492 99.1243C113.397 98.2708 112.774 96.71 111.046 97.2957C108.885 98.0279 108.428 98.6395 108.783 99.9311C109.067 100.964 111.421 103.467 112.562 104.588ZM107.739 107.51C107.396 108.623 106.726 111.358 106.786 113.397M97.1881 106.518C97.636 107.391 98.4909 109.897 98.3271 112.942" stroke="white" stroke-width="2"/>
<path d="M161.15 27.9466C162.92 26.8614 166.767 24.2104 168.002 22.2884" stroke="white" stroke-width="2"/>
<path d="M163.567 45.5703C165.814 46.0948 171.209 47.0764 174.813 46.807" stroke="white" stroke-width="2"/>
<path d="M127.847 52.4098C125.55 53.935 120.47 57.5081 118.519 59.5995" stroke="white" stroke-width="2"/>
<path d="M123.73 37.9158C120.944 37.4703 114.797 36.6713 112.497 37.0401" stroke="white" stroke-width="2"/>
<path d="M133.493 22.3999C132.702 20.4396 130.202 16.081 126.527 14.3291" stroke="white" stroke-width="2"/>
<path d="M147.869 20.0945C148.367 18.8123 149.586 15.4091 150.481 12.0533" stroke="white" stroke-width="2"/>
<path d="M150.328 59.7618L150.362 60.7612L150.362 60.7612L150.328 59.7618ZM150.213 56.4391L150.258 55.4401L150.218 55.4383L150.178 55.4397L150.213 56.4391ZM144.979 56.6204L144.944 55.621L143.945 55.6556L143.979 56.655L144.979 56.6204ZM144.979 56.6217L145.013 57.6211L146.013 57.5864L145.978 56.587L144.979 56.6217ZM140.647 56.7717L140.612 55.7723L140.647 56.7717ZM140.762 60.0945L140.717 61.0935L140.756 61.0953L140.796 61.0939L140.762 60.0945ZM145.996 59.9132L146.03 60.9126L147.03 60.878L146.995 59.8786L145.996 59.9132ZM145.996 59.9119L145.961 58.9125L144.962 58.9471L144.996 59.9465L145.996 59.9119ZM151.078 58.1448C151.083 58.2981 151.052 58.381 151.027 58.4263C151.001 58.4759 150.956 58.5276 150.88 58.5794C150.708 58.6973 150.458 58.7567 150.293 58.7624L150.362 60.7612C150.8 60.7461 151.446 60.6153 152.009 60.2305C152.625 59.8096 153.112 59.0937 153.077 58.0755L151.078 58.1448ZM150.167 57.4381C150.331 57.4455 150.6 57.5078 150.802 57.6416C150.894 57.7025 150.956 57.7677 150.997 57.8348C151.035 57.8975 151.073 57.9917 151.078 58.1448L153.077 58.0755C153.042 57.0666 152.517 56.3787 151.907 55.9747C151.339 55.5976 150.697 55.46 150.258 55.4401L150.167 57.4381ZM145.013 57.6198L150.247 57.4385L150.178 55.4397L144.944 55.621L145.013 57.6198ZM145.978 56.587L145.978 56.5858L143.979 56.655L143.979 56.6563L145.978 56.587ZM140.681 57.7711L145.013 57.6211L144.944 55.6223L140.612 55.7723L140.681 57.7711ZM139.896 58.3888C139.891 58.2355 139.922 58.1526 139.947 58.1073C139.974 58.0576 140.018 58.006 140.094 57.9542C140.266 57.8363 140.517 57.7768 140.681 57.7711L140.612 55.7723C140.175 55.7875 139.528 55.9182 138.965 56.3031C138.35 56.724 137.862 57.4399 137.897 58.458L139.896 58.3888ZM140.807 59.0955C140.643 59.0881 140.374 59.0258 140.172 58.892C140.08 58.8311 140.018 58.7659 139.977 58.6987C139.939 58.6361 139.902 58.5419 139.896 58.3888L137.897 58.458C137.932 59.467 138.458 60.1548 139.067 60.5589C139.636 60.936 140.277 61.0736 140.717 61.0935L140.807 59.0955ZM145.961 58.9138L140.727 59.0951L140.796 61.0939L146.03 60.9126L145.961 58.9138ZM144.996 59.9465L144.996 59.9478L146.995 59.8786L146.995 59.8773L144.996 59.9465ZM150.293 58.7624L145.961 58.9125L146.03 60.9113L150.362 60.7612L150.293 58.7624Z" fill="white"/>
<path d="M143.184 65.6119L143.163 66.6116L143.191 66.6122L143.218 66.6113L143.184 65.6119ZM145.498 65.5317L146.498 65.4971L146.463 64.4977L145.464 64.5323L145.498 65.5317ZM145.498 65.5321L144.499 65.5667L144.534 66.5661L145.533 66.5315L145.498 65.5321ZM148.295 65.4352L148.329 66.4346L148.329 66.4346L148.295 65.4352ZM148.252 64.1962L148.273 63.1964L148.245 63.1958L148.217 63.1968L148.252 64.1962ZM145.937 64.2764L144.938 64.311L144.972 65.3104L145.972 65.2758L145.937 64.2764ZM145.937 64.276L146.936 64.2414L146.902 63.242L145.902 63.2766L145.937 64.276ZM143.197 64.9642C143.199 65.0204 143.191 65.0861 143.168 65.1543C143.145 65.2219 143.113 65.277 143.08 65.3186C143.02 65.3958 142.967 65.4176 142.979 65.4121C142.986 65.4085 143.014 65.3973 143.063 65.387C143.109 65.3771 143.152 65.3731 143.176 65.3722L143.106 63.3734C142.857 63.3821 142.468 63.4369 142.106 63.6123C141.742 63.7891 141.17 64.2266 141.198 65.0334L143.197 64.9642ZM143.205 64.6121C143.181 64.6116 143.137 64.608 143.088 64.5984C143.037 64.5885 143.004 64.5768 142.991 64.5706C142.974 64.5629 143.016 64.5778 143.071 64.6415C143.101 64.6759 143.133 64.7236 143.158 64.7843C143.183 64.846 143.195 64.908 143.197 64.9642L141.198 65.0334C141.225 65.8209 141.802 66.2267 142.161 66.3905C142.525 66.5565 142.912 66.6063 143.163 66.6116L143.205 64.6121ZM145.464 64.5323L143.149 64.6125L143.218 66.6113L145.533 66.5311L145.464 64.5323ZM146.498 65.4975L146.498 65.4971L144.499 65.5663L144.499 65.5667L146.498 65.4975ZM148.26 64.4358L145.464 64.5327L145.533 66.5315L148.329 66.4346L148.26 64.4358ZM148.239 64.8439C148.237 64.7877 148.245 64.722 148.267 64.6537C148.29 64.5861 148.323 64.531 148.355 64.4895C148.415 64.4122 148.468 64.3905 148.457 64.3959C148.449 64.3996 148.421 64.4108 148.373 64.421C148.326 64.4309 148.284 64.435 148.26 64.4358L148.329 66.4346C148.578 66.426 148.967 66.3712 149.329 66.1957C149.694 66.019 150.266 65.5815 150.238 64.7746L148.239 64.8439ZM148.23 65.196C148.254 65.1965 148.298 65.2 148.348 65.2097C148.398 65.2196 148.431 65.2313 148.445 65.2374C148.462 65.2452 148.419 65.2303 148.364 65.1666C148.335 65.1321 148.303 65.0845 148.278 65.0237C148.253 64.9621 148.241 64.9 148.239 64.8439L150.238 64.7746C150.21 63.9872 149.634 63.5814 149.274 63.4176C148.91 63.2516 148.523 63.2017 148.273 63.1964L148.23 65.196ZM145.972 65.2758L148.286 65.1956L148.217 63.1968L145.902 63.277L145.972 65.2758ZM144.938 64.3106L144.938 64.311L146.936 64.2418L146.936 64.2414L144.938 64.3106ZM143.176 65.3722L145.972 65.2754L145.902 63.2766L143.106 63.3734L143.176 65.3722Z" fill="white"/>
<path d="M140.912 64.4254L140.847 65.4233L140.896 65.4266L140.946 65.4248L140.912 64.4254ZM145.244 64.2754L146.243 64.2407L146.209 63.2413L145.209 63.2759L145.244 64.2754ZM145.244 64.2756L144.244 64.3102L144.279 65.3096L145.278 65.275L145.244 64.2756ZM150.478 64.0943L150.512 65.0937L150.512 65.0937L150.478 64.0943ZM150.334 59.9432L150.399 58.9453L150.349 58.9421L150.299 58.9438L150.334 59.9432ZM146.002 60.0933L145.002 60.1279L145.037 61.1273L146.036 61.0927L146.002 60.0933ZM146.002 60.0931L147.001 60.0584L146.966 59.059L145.967 59.0937L146.002 60.0931ZM140.031 62.2876C140.014 61.7809 140.181 61.5741 140.301 61.4725C140.464 61.3342 140.682 61.278 140.802 61.2738L140.733 59.275C140.252 59.2917 139.575 59.4652 139.006 59.9486C138.394 60.4686 137.995 61.2753 138.032 62.3568L140.031 62.2876ZM140.976 63.4276C140.855 63.4196 140.608 63.3546 140.405 63.1858C140.237 63.0457 140.049 62.7969 140.031 62.2876L138.032 62.3568C138.07 63.4357 138.52 64.2188 139.126 64.7235C139.699 65.1994 140.365 65.3919 140.847 65.4233L140.976 63.4276ZM145.209 63.2759L140.877 63.426L140.946 65.4248L145.278 65.2748L145.209 63.2759ZM146.243 64.241L146.243 64.2407L144.244 64.31L144.244 64.3102L146.243 64.241ZM150.443 63.0949L145.209 63.2762L145.278 65.275L150.512 65.0937L150.443 63.0949ZM151.214 62.0811C151.232 62.5878 151.064 62.7945 150.944 62.8962C150.782 63.0344 150.563 63.0907 150.443 63.0949L150.512 65.0937C150.994 65.077 151.671 64.9034 152.24 64.4201C152.851 63.9001 153.251 63.0933 153.213 62.0118L151.214 62.0811ZM150.269 60.9411C150.391 60.949 150.637 61.014 150.84 61.1828C151.009 61.3229 151.197 61.5717 151.214 62.0811L153.213 62.0118C153.176 60.9329 152.726 60.1498 152.119 59.6451C151.547 59.1692 150.881 58.9767 150.399 58.9453L150.269 60.9411ZM146.036 61.0927L150.369 60.9426L150.299 58.9438L145.967 59.0939L146.036 61.0927ZM145.002 60.1277L145.002 60.1279L147.001 60.0587L147.001 60.0584L145.002 60.1277ZM140.802 61.2738L146.036 61.0925L145.967 59.0937L140.733 59.275L140.802 61.2738Z" fill="white"/>
<path d="M161.08 39.1518C161.389 48.0496 154.269 55.5534 145.133 55.87C135.996 56.1865 128.374 49.1934 128.066 40.2956C127.758 31.3978 134.877 23.894 144.014 23.5775C153.15 23.261 160.772 30.254 161.08 39.1518Z" stroke="white" stroke-width="2"/>
<path d="M134.685 46.3919C135.851 45.2673 138.353 42.7232 139.034 41.5431C139.887 40.068 138.573 38.6679 136.98 39.6266C135.387 40.5852 135.17 44.7487 137.585 46.6527C139.517 48.1759 142.199 45.9508 143.298 44.6478C144.047 43.6581 145.701 40.9867 146.328 38.2184C147.111 34.758 144.423 35.3933 143.925 36.6754C143.428 37.9575 142.588 39.7935 143.615 43.3718C144.437 46.2345 147.663 47.2069 149.173 47.3353C150.082 47.4846 152.138 47.3775 153.094 45.7541M153.094 45.7541C154.05 44.1307 153.745 41.9368 153.473 41.0429C153.328 40.325 152.681 39.0463 151.257 39.6738C149.477 40.4583 149.135 41.0122 149.534 42.0826C149.852 42.9389 152.04 44.8871 153.094 45.7541ZM149.217 48.5986C149.01 49.5695 148.646 51.9432 148.851 53.6708M140.181 48.5503C140.627 49.2576 141.542 51.322 141.632 53.9209" stroke="white" stroke-width="2"/>
<path d="M69.479 50.7773C71.5516 50.8893 76.2239 50.8932 78.3316 50.0127" stroke="white" stroke-width="2"/>
<path d="M61.457 66.6553C63.0081 68.3632 66.8902 72.2357 70.0098 74.0616" stroke="white" stroke-width="2"/>
<path d="M28.1737 51.9912C25.4176 51.942 19.2068 51.9966 16.4128 52.6092" stroke="white" stroke-width="2"/>
<path d="M33.0198 37.7251C30.98 35.7757 26.3748 31.6261 24.2724 30.623" stroke="white" stroke-width="2"/>
<path d="M49.8693 30.5013C50.3321 28.4388 50.7506 23.4316 48.7217 19.9023" stroke="white" stroke-width="2"/>
<path d="M63.0092 36.7708C64.1471 35.9983 67.0838 33.8902 69.7273 31.6372" stroke="white" stroke-width="2"/>
<path d="M42.4988 70.8131L41.9596 71.6553L41.9596 71.6553L42.4988 70.8131ZM44.2917 68.0132L44.8964 67.2167L44.8645 67.1926L44.8309 67.171L44.2917 68.0132ZM39.8812 65.1892L40.4205 64.347L39.5783 63.8078L39.0391 64.6499L39.8812 65.1892ZM39.8806 65.1902L39.3413 66.0324L40.1835 66.5716L40.7227 65.7295L39.8806 65.1902ZM36.2301 62.8528L35.6909 63.695L36.2301 62.8528ZM34.4373 65.6527L33.8326 66.4492L33.8644 66.4733L33.898 66.4949L34.4373 65.6527ZM38.8477 68.4768L38.3085 69.3189L39.1506 69.8582L39.6898 69.016L38.8477 68.4768ZM38.8484 68.4757L39.3876 67.6336L38.5455 67.0943L38.0062 67.9365L38.8484 68.4757ZM44.0349 69.9086C43.9522 70.0378 43.8793 70.0881 43.8334 70.1115C43.7831 70.1371 43.7171 70.1544 43.6253 70.154C43.4164 70.153 43.1766 70.0597 43.0381 69.971L41.9596 71.6553C42.328 71.8912 42.9343 72.1509 43.6163 72.1539C44.362 72.1573 45.1699 71.845 45.7192 70.9871L44.0349 69.9086ZM43.6869 68.8096C43.8177 68.9089 44.0037 69.113 44.0937 69.3378C44.1347 69.44 44.1491 69.5291 44.1444 69.6075C44.1401 69.6807 44.1176 69.7796 44.0349 69.9086L45.7192 70.9871C46.2636 70.1369 46.2222 69.2725 45.9502 68.5937C45.6963 67.9603 45.2466 67.4827 44.8964 67.2167L43.6869 68.8096ZM39.342 66.0313L43.7524 68.8553L44.8309 67.171L40.4205 64.347L39.342 66.0313ZM40.7227 65.7295L40.7234 65.7284L39.0391 64.6499L39.0384 64.651L40.7227 65.7295ZM35.6909 63.695L39.3413 66.0324L40.4198 64.3481L36.7694 62.0106L35.6909 63.695ZM34.694 63.7573C34.7767 63.6281 34.8497 63.5778 34.8956 63.5544C34.9458 63.5288 35.0119 63.5116 35.1036 63.512C35.3125 63.5129 35.5523 63.6062 35.6909 63.695L36.7694 62.0106C36.401 61.7748 35.7946 61.5151 35.1126 61.512C34.3669 61.5086 33.559 61.8209 33.0097 62.6789L34.694 63.7573ZM35.042 64.8563C34.9112 64.757 34.7253 64.553 34.6352 64.3282C34.5942 64.2259 34.5799 64.1368 34.5845 64.0584C34.5889 63.9852 34.6114 63.8864 34.694 63.7573L33.0097 62.6789C32.4653 63.529 32.5067 64.3934 32.7787 65.0722C33.0326 65.7057 33.4823 66.1833 33.8326 66.4492L35.042 64.8563ZM39.3869 67.6346L34.9765 64.8106L33.898 66.4949L38.3085 69.3189L39.3869 67.6346ZM38.0062 67.9365L38.0055 67.9375L39.6898 69.016L39.6905 69.015L38.0062 67.9365ZM43.0381 69.971L39.3876 67.6336L38.3091 69.3179L41.9596 71.6553L43.0381 69.971Z" fill="white"/>
<path d="M33.2963 71.5692L32.7109 72.3799L32.7335 72.3963L32.757 72.4113L33.2963 71.5692ZM35.2467 72.818L36.0888 73.3573L36.628 72.5151L35.7859 71.9759L35.2467 72.818ZM35.2464 72.8184L34.4043 72.2791L33.865 73.1213L34.7072 73.6605L35.2464 72.8184ZM37.6026 74.327L37.0634 75.1692L37.0634 75.1692L37.6026 74.327ZM38.2711 73.283L38.8565 72.4722L38.8339 72.4559L38.8104 72.4408L38.2711 73.283ZM36.3208 72.0341L35.4786 71.4949L34.9394 72.337L35.7815 72.8763L36.3208 72.0341ZM36.321 72.0338L37.1631 72.573L37.7024 71.7309L36.8602 71.1916L36.321 72.0338ZM33.6748 71.0435C33.6445 71.0908 33.6008 71.1405 33.5431 71.1836C33.4861 71.2264 33.428 71.2533 33.3777 71.269C33.2841 71.2983 33.2284 71.2863 33.2407 71.2882C33.249 71.2894 33.2784 71.2961 33.3242 71.3152C33.3684 71.3337 33.4056 71.3545 33.4256 71.3673L34.5041 69.683C34.2941 69.5485 33.943 69.3728 33.5454 69.3115C33.1449 69.2498 32.4258 69.285 31.9905 69.965L33.6748 71.0435ZM33.8817 70.7584C33.8622 70.7444 33.8282 70.7166 33.793 70.6806C33.7569 70.6436 33.7365 70.6153 33.7289 70.6026C33.7193 70.5865 33.7459 70.623 33.7548 70.7065C33.7596 70.7518 33.7589 70.8092 33.7447 70.8732C33.7303 70.9382 33.7051 70.9961 33.6748 71.0435L31.9905 69.965C31.5656 70.6285 31.8097 71.2901 32.0123 71.629C32.2178 71.9725 32.5077 72.2332 32.7109 72.3799L33.8817 70.7584ZM35.7859 71.9759L33.8355 70.727L32.757 72.4113L34.7074 73.6602L35.7859 71.9759ZM36.0886 73.3576L36.0888 73.3573L34.4045 72.2788L34.4043 72.2791L36.0886 73.3576ZM38.1418 73.4849L35.7857 71.9762L34.7072 73.6605L37.0634 75.1692L38.1418 73.4849ZM37.8926 73.8087C37.9229 73.7614 37.9666 73.7117 38.0243 73.6685C38.0813 73.6258 38.1394 73.5989 38.1897 73.5831C38.2833 73.5539 38.339 73.5659 38.3267 73.564C38.3184 73.5627 38.289 73.556 38.2432 73.5369C38.199 73.5184 38.1618 73.4976 38.1418 73.4849L37.0634 75.1692C37.2734 75.3036 37.6244 75.4794 38.022 75.5406C38.4226 75.6024 39.1416 75.5671 39.5769 74.8872L37.8926 73.8087ZM37.6857 74.0937C37.7052 74.1077 37.7392 74.1356 37.7744 74.1716C37.8105 74.2085 37.8309 74.2368 37.8385 74.2496C37.8481 74.2656 37.8215 74.2292 37.8126 74.1456C37.8078 74.1004 37.8085 74.043 37.8227 73.979C37.8371 73.914 37.8623 73.856 37.8926 73.8087L39.5769 74.8872C40.0018 74.2236 39.7577 73.5621 39.5551 73.2231C39.3496 72.8796 39.0597 72.619 38.8565 72.4722L37.6857 74.0937ZM35.7815 72.8763L37.7319 74.1251L38.8104 72.4408L36.86 71.192L35.7815 72.8763ZM35.4788 71.4945L35.4786 71.4949L37.1629 72.5734L37.1631 72.573L35.4788 71.4945ZM33.4256 71.3673L35.7817 72.8759L36.8602 71.1916L34.5041 69.683L33.4256 71.3673Z" fill="white"/>
<path d="M32.1004 69.3018L31.4801 70.0861L31.5192 70.1171L31.5612 70.144L32.1004 69.3018ZM35.7511 71.6394L36.5932 72.1786L37.1325 71.3365L36.2903 70.7972L35.7511 71.6394ZM35.751 71.6396L34.9088 71.1003L34.3696 71.9425L35.2117 72.4817L35.751 71.6396ZM40.1614 74.4636L39.6221 75.3057L39.6221 75.3057L40.1614 74.4636ZM42.4011 70.9657L43.0215 70.1814L42.9824 70.1504L42.9404 70.1235L42.4011 70.9657ZM38.7505 68.6281L37.9083 68.0889L37.3691 68.931L38.2112 69.4703L38.7505 68.6281ZM38.7506 68.6279L39.5927 69.1672L40.132 68.325L39.2898 67.7858L38.7506 68.6279ZM32.5903 67.0422C32.8637 66.6153 33.1194 66.5405 33.2756 66.5248C33.488 66.5034 33.6995 66.5811 33.8009 66.646L34.8794 64.9617C34.4739 64.702 33.8179 64.4601 33.0753 64.5349C32.2764 64.6153 31.4895 65.0524 30.906 65.9638L32.5903 67.0422ZM32.7208 68.5175C32.6251 68.4418 32.4591 68.2483 32.388 67.994C32.329 67.7831 32.3155 67.4714 32.5903 67.0422L30.906 65.9638C30.3239 66.8729 30.2493 67.773 30.462 68.533C30.6626 69.2498 31.1012 69.7865 31.4801 70.0861L32.7208 68.5175ZM36.2903 70.7972L32.6397 68.4596L31.5612 70.144L35.2118 72.4815L36.2903 70.7972ZM36.5931 72.1788L36.5932 72.1786L34.9089 71.1001L34.9088 71.1003L36.5931 72.1788ZM40.7006 73.6214L36.2902 70.7974L35.2117 72.4817L39.6221 75.3057L40.7006 73.6214ZM41.9112 73.2252C41.6378 73.6522 41.3821 73.7269 41.226 73.7427C41.0136 73.764 40.802 73.6864 40.7006 73.6214L39.6221 75.3057C40.0277 75.5654 40.6837 75.8074 41.4263 75.7326C42.2252 75.6522 43.012 75.2151 43.5956 74.3037L41.9112 73.2252ZM41.7808 71.75C41.8764 71.8256 42.0424 72.0192 42.1136 72.2735C42.1726 72.4844 42.1861 72.7961 41.9112 73.2252L43.5956 74.3037C44.1777 73.3946 44.2523 72.4945 44.0396 71.7344C43.839 71.0177 43.4003 70.481 43.0215 70.1814L41.7808 71.75ZM38.2112 69.4703L41.8619 71.8078L42.9404 70.1235L39.2897 67.786L38.2112 69.4703ZM37.9084 68.0887L37.9083 68.0889L39.5926 69.1674L39.5927 69.1672L37.9084 68.0887ZM33.8009 66.646L38.2113 69.4701L39.2898 67.7858L34.8794 64.9617L33.8009 66.646Z" fill="white"/>
<path d="M63.0564 59.9597C58.2554 67.4575 48.1334 69.5884 40.4345 64.6588C32.7357 59.7291 30.4356 49.6441 35.2365 42.1463C40.0374 34.6485 50.1595 32.5176 57.8583 37.4472C65.5572 42.3769 67.8573 52.4619 63.0564 59.9597Z" stroke="white" stroke-width="2"/>
<path d="M37.2205 50.9225C38.8187 50.6592 42.3229 49.9866 43.5545 49.4028C45.0939 48.6731 44.8084 46.7747 42.9527 46.6587C41.0971 46.5427 38.5532 49.8458 39.4591 52.7846C40.1838 55.1357 43.6547 54.8278 45.2996 54.38C46.478 53.9909 49.3569 52.7321 51.4454 50.8099C54.0561 48.4072 51.4827 47.4028 50.3448 48.1752C49.2068 48.9477 47.4727 49.9815 46.2855 53.5101C45.3357 56.3329 47.4383 58.9658 48.6082 59.9294C49.2712 60.5685 51.0243 61.6485 52.733 60.8553M52.733 60.8553C54.4417 60.0621 55.437 58.0835 55.7211 57.1933C56.0093 56.52 56.2036 55.1002 54.6753 54.8078C52.7649 54.4424 52.1686 54.7039 51.8885 55.8111C51.6644 56.6969 52.3581 59.543 52.733 60.8553ZM47.9266 60.994C47.2044 61.6752 45.5569 63.4223 44.7437 64.9602M40.5172 55.8208C40.4825 56.6563 40.0626 58.8749 38.6603 61.0649" stroke="white" stroke-width="2"/>
<path d="M193.62 105.873C195.444 105.752 199.53 105.261 201.28 104.268" stroke="white" stroke-width="2"/>
<path d="M188.284 120.605C189.821 121.935 193.625 124.91 196.547 126.177" stroke="white" stroke-width="2"/>
<path d="M157.628 111.304C155.213 111.552 149.788 112.257 147.41 113.089" stroke="white" stroke-width="2"/>
<path d="M160.358 98.3174C158.368 96.8286 153.902 93.6873 151.957 93.0326" stroke="white" stroke-width="2"/>
<path d="M174.326 90.2178C174.513 88.3654 174.349 83.9427 172.201 81.0713" stroke="white" stroke-width="2"/>
<path d="M186.479 94.3096C187.392 93.5137 189.737 91.3596 191.81 89.1099" stroke="white" stroke-width="2"/>
<path d="M172.147 126.247L171.713 127.148L171.713 127.148L172.147 126.247ZM173.418 123.609L173.923 122.746L173.889 122.725L173.853 122.708L173.418 123.609ZM169.263 121.606L169.697 120.705L168.796 120.271L168.362 121.172L169.263 121.606ZM169.262 121.607L168.828 122.508L169.729 122.942L170.163 122.042L169.262 121.607ZM164.551 122.588L164.047 123.451L164.081 123.471L164.117 123.489L164.551 122.588ZM168.707 124.59L168.273 125.491L169.173 125.925L169.608 125.025L168.707 124.59ZM168.707 124.589L169.142 123.688L168.241 123.254L167.807 124.155L168.707 124.589ZM173.287 125.242C173.237 125.346 173.192 125.381 173.173 125.393C173.15 125.409 173.113 125.425 173.048 125.433C172.98 125.441 172.895 125.437 172.8 125.417C172.705 125.398 172.627 125.368 172.581 125.346L171.713 127.148C172.074 127.322 172.655 127.492 173.28 127.42C173.968 127.339 174.679 126.96 175.089 126.11L173.287 125.242ZM172.914 124.472C173.024 124.537 173.191 124.681 173.281 124.845C173.321 124.918 173.336 124.977 173.339 125.026C173.342 125.069 173.337 125.138 173.287 125.242L175.089 126.11C175.494 125.269 175.36 124.477 175.035 123.884C174.733 123.334 174.272 122.949 173.923 122.746L172.914 124.472ZM168.829 122.507L172.984 124.51L173.853 122.708L169.697 120.705L168.829 122.507ZM170.163 122.042L170.164 122.04L168.362 121.172L168.362 121.173L170.163 122.042ZM165.389 120.85L168.828 122.508L169.697 120.707L166.257 119.049L165.389 120.85ZM164.683 120.955C164.733 120.851 164.778 120.816 164.797 120.803C164.82 120.788 164.857 120.771 164.921 120.764C164.99 120.756 165.075 120.76 165.17 120.779C165.264 120.799 165.343 120.828 165.389 120.85L166.257 119.049C165.895 118.874 165.315 118.704 164.69 118.777C164.002 118.857 163.291 119.237 162.881 120.087L164.683 120.955ZM165.056 121.724C164.945 121.66 164.779 121.515 164.689 121.351C164.649 121.279 164.633 121.219 164.63 121.171C164.628 121.127 164.633 121.059 164.683 120.955L162.881 120.087C162.476 120.928 162.61 121.72 162.935 122.313C163.237 122.863 163.698 123.247 164.047 123.451L165.056 121.724ZM169.141 123.69L164.986 121.687L164.117 123.489L168.273 125.491L169.141 123.69ZM167.807 124.155L167.806 124.156L169.608 125.025L169.608 125.023L167.807 124.155ZM172.581 125.346L169.142 123.688L168.273 125.49L171.713 127.148L172.581 125.346Z" fill="white"/>
<path d="M168.236 129.836L167.802 130.737L167.802 130.737L168.236 129.836ZM168.71 128.853L169.194 127.978L169.17 127.964L169.145 127.952L168.71 128.853ZM166.491 127.783L166.925 126.882L166.024 126.448L165.59 127.349L166.491 127.783ZM166.49 127.784L166.056 128.685L166.957 129.119L167.391 128.218L166.49 127.784ZM164.653 126.898L165.087 125.997L164.653 126.898ZM164.179 127.882L163.695 128.757L163.719 128.771L163.744 128.783L164.179 127.882ZM166.399 128.952L165.964 129.853L166.865 130.287L167.299 129.386L166.399 128.952ZM166.399 128.951L166.833 128.05L165.932 127.616L165.498 128.517L166.399 128.951ZM168.328 129.301C168.355 129.244 168.396 129.184 168.453 129.13C168.509 129.076 168.568 129.039 168.622 129.015C168.722 128.97 168.792 128.973 168.793 128.973C168.797 128.974 168.781 128.973 168.745 128.963C168.712 128.954 168.683 128.942 168.671 128.936L167.802 130.737C168.01 130.837 168.352 130.96 168.728 130.972C169.106 130.985 169.791 130.871 170.129 130.169L168.328 129.301ZM168.227 129.728C168.239 129.735 168.266 129.752 168.296 129.775C168.309 129.786 168.32 129.796 168.329 129.805C168.338 129.813 168.341 129.818 168.34 129.817C168.34 129.816 168.332 129.806 168.322 129.786C168.311 129.766 168.296 129.731 168.285 129.682C168.273 129.632 168.266 129.569 168.273 129.497C168.28 129.425 168.3 129.358 168.328 129.301L170.129 130.169C170.459 129.485 170.147 128.883 169.921 128.592C169.692 128.296 169.397 128.09 169.194 127.978L168.227 129.728ZM166.056 128.684L168.276 129.754L169.145 127.952L166.925 126.882L166.056 128.684ZM167.391 128.218L167.391 128.217L165.59 127.349L165.589 127.35L167.391 128.218ZM164.219 127.799L166.056 128.685L166.924 126.883L165.087 125.997L164.219 127.799ZM164.561 127.434C164.534 127.491 164.493 127.551 164.436 127.605C164.38 127.658 164.321 127.695 164.267 127.72C164.167 127.765 164.097 127.761 164.096 127.761C164.092 127.761 164.108 127.762 164.144 127.772C164.178 127.781 164.206 127.793 164.219 127.799L165.087 125.997C164.88 125.897 164.537 125.774 164.161 125.762C163.783 125.75 163.098 125.864 162.76 126.566L164.561 127.434ZM164.662 127.007C164.65 127 164.623 126.983 164.594 126.959C164.58 126.948 164.569 126.938 164.56 126.93C164.552 126.921 164.548 126.917 164.549 126.918C164.549 126.918 164.557 126.928 164.567 126.948C164.578 126.968 164.593 127.003 164.604 127.052C164.616 127.103 164.623 127.166 164.616 127.237C164.609 127.31 164.589 127.377 164.561 127.434L162.76 126.566C162.43 127.25 162.742 127.852 162.968 128.143C163.197 128.438 163.492 128.645 163.695 128.757L164.662 127.007ZM166.833 128.051L164.613 126.981L163.744 128.783L165.964 129.853L166.833 128.051ZM165.498 128.517L165.498 128.518L167.299 129.386L167.3 129.385L165.498 128.517ZM168.671 128.936L166.833 128.05L165.965 129.852L167.802 130.737L168.671 128.936Z" fill="white"/>
<path d="M170.488 129.686L170.922 128.785L170.922 128.785L170.488 129.686ZM172.077 126.39L172.598 125.537L172.556 125.511L172.511 125.489L172.077 126.39ZM167.921 124.388L168.356 123.487L167.455 123.053L167.021 123.953L167.921 124.388ZM167.921 124.388L167.487 125.288L168.388 125.723L168.822 124.822L167.921 124.388ZM164.482 122.73L164.916 121.829L164.482 122.73ZM162.893 126.025L162.372 126.879L162.414 126.905L162.459 126.926L162.893 126.025ZM167.049 128.028L166.614 128.929L167.515 129.363L167.949 128.462L167.049 128.028ZM167.049 128.028L167.483 127.127L166.582 126.693L166.148 127.594L167.049 128.028ZM171.78 128.366C171.684 128.566 171.587 128.671 171.518 128.727C171.449 128.783 171.382 128.812 171.317 128.827C171.164 128.861 170.999 128.822 170.922 128.785L170.054 130.587C170.456 130.78 171.082 130.929 171.755 130.778C172.482 130.615 173.153 130.124 173.582 129.235L171.78 128.366ZM171.555 127.243C171.628 127.288 171.775 127.422 171.854 127.61C171.914 127.757 171.96 127.992 171.78 128.366L173.582 129.235C174.009 128.347 173.98 127.517 173.701 126.843C173.439 126.212 172.98 125.77 172.598 125.537L171.555 127.243ZM167.487 125.288L171.643 127.291L172.511 125.489L168.356 123.487L167.487 125.288ZM168.822 124.822L168.822 124.822L167.021 123.953L167.02 123.953L168.822 124.822ZM164.047 123.631L167.487 125.288L168.355 123.487L164.916 121.829L164.047 123.631ZM163.19 124.05C163.286 123.85 163.383 123.745 163.452 123.688C163.521 123.632 163.588 123.604 163.653 123.589C163.806 123.555 163.971 123.594 164.047 123.631L164.916 121.829C164.514 121.635 163.888 121.487 163.215 121.638C162.488 121.801 161.817 122.292 161.388 123.181L163.19 124.05ZM163.415 125.172C163.342 125.128 163.195 124.994 163.116 124.806C163.056 124.659 163.01 124.423 163.19 124.05L161.388 123.181C160.961 124.068 160.99 124.899 161.269 125.572C161.531 126.204 161.99 126.645 162.372 126.879L163.415 125.172ZM167.483 127.127L163.327 125.125L162.459 126.926L166.614 128.929L167.483 127.127ZM166.148 127.594L166.148 127.594L167.949 128.462L167.949 128.462L166.148 127.594ZM170.922 128.785L167.483 127.127L166.614 128.929L170.054 130.587L170.922 128.785Z" fill="white"/>
<path d="M188.867 114.529C185.491 121.532 176.938 124.445 169.742 120.976C162.545 117.508 159.495 109.003 162.87 102C166.245 94.9969 174.799 92.0844 181.995 95.5529C189.192 99.0215 192.242 107.527 188.867 114.529Z" stroke="white" stroke-width="2"/>
<path d="M165.427 109.413C166.796 109.014 169.789 108.055 170.804 107.414C172.073 106.613 171.623 104.983 169.988 105.078C168.353 105.173 166.478 108.33 167.581 110.804C168.464 112.784 171.466 112.147 172.857 111.581C173.846 111.117 176.23 109.711 177.853 107.809C179.882 105.432 177.525 104.826 176.612 105.622C175.699 106.418 174.292 107.505 173.627 110.716C173.095 113.285 175.212 115.365 176.337 116.084C176.985 116.573 178.632 117.332 180.042 116.457M180.042 116.457C181.452 115.583 182.113 113.747 182.268 112.939C182.448 112.32 182.468 111.058 181.101 110.964C179.392 110.846 178.898 111.138 178.77 112.136C178.668 112.934 179.575 115.349 180.042 116.457ZM175.854 117.087C175.294 117.759 174.039 119.461 173.49 120.892M168.828 113.347C168.886 114.082 168.753 116.066 167.759 118.129" stroke="white" stroke-width="2"/>
<path d="M130.984 145.092C132.188 143.716 134.73 140.479 135.265 138.54" stroke="white" stroke-width="2"/>
<path d="M137.628 159.282C139.655 159.135 144.449 158.549 147.41 157.379" stroke="white" stroke-width="2"/>
<path d="M109.374 174.381C107.842 176.265 104.504 180.599 103.41 182.869" stroke="white" stroke-width="2"/>
<path d="M102.121 163.269C99.6616 163.623 94.2825 164.56 92.4445 165.472" stroke="white" stroke-width="2"/>
<path d="M106.271 147.664C105.093 146.223 101.85 143.211 98.3008 142.699" stroke="white" stroke-width="2"/>
<path d="M117.759 141.964C117.842 140.756 117.977 137.574 117.852 134.518" stroke="white" stroke-width="2"/>
<path d="M130.207 174.682L130.537 175.626L130.537 175.626L130.207 174.682ZM129.241 171.918L128.987 170.95L128.948 170.961L128.911 170.974L129.241 171.918ZM124.886 173.44L124.556 172.496L123.612 172.826L123.942 173.77L124.886 173.44ZM124.887 173.441L125.217 174.385L126.161 174.055L125.831 173.111L124.887 173.441ZM122.249 177.465L122.502 178.433L122.541 178.423L122.579 178.409L122.249 177.465ZM126.603 175.943L126.933 176.887L127.877 176.557L127.547 175.613L126.603 175.943ZM126.603 175.942L126.273 174.998L125.329 175.328L125.659 176.272L126.603 175.942ZM130.302 173.165C130.34 173.274 130.333 173.331 130.329 173.353C130.324 173.38 130.309 173.418 130.269 173.469C130.226 173.523 130.163 173.581 130.082 173.634C130.001 173.687 129.925 173.721 129.877 173.738L130.537 175.626C130.916 175.494 131.447 175.203 131.837 174.71C132.267 174.167 132.501 173.395 132.19 172.505L130.302 173.165ZM129.494 172.885C129.618 172.853 129.838 172.837 130.018 172.889C130.097 172.912 130.15 172.943 130.187 172.976C130.219 173.004 130.264 173.056 130.302 173.165L132.19 172.505C131.882 171.624 131.227 171.159 130.578 170.969C129.976 170.794 129.378 170.848 128.987 170.95L129.494 172.885ZM125.216 174.384L129.571 172.862L128.911 170.974L124.556 172.496L125.216 174.384ZM125.831 173.111L125.83 173.11L123.942 173.77L123.943 173.771L125.831 173.111ZM121.612 175.645L125.217 174.385L124.557 172.497L120.952 173.757L121.612 175.645ZM121.187 176.218C121.149 176.109 121.156 176.053 121.16 176.03C121.166 176.003 121.18 175.965 121.22 175.914C121.263 175.86 121.327 175.803 121.407 175.75C121.488 175.696 121.564 175.662 121.612 175.645L120.952 173.757C120.573 173.89 120.042 174.18 119.652 174.673C119.222 175.216 118.988 175.988 119.299 176.878L121.187 176.218ZM121.995 176.498C121.871 176.531 121.651 176.546 121.471 176.494C121.392 176.471 121.339 176.44 121.303 176.408C121.27 176.379 121.225 176.327 121.187 176.218L119.299 176.878C119.607 177.759 120.262 178.225 120.911 178.414C121.514 178.59 122.112 178.535 122.502 178.433L121.995 176.498ZM126.273 174.999L121.919 176.521L122.579 178.409L126.933 176.887L126.273 174.999ZM125.659 176.272L125.659 176.273L127.547 175.613L127.547 175.612L125.659 176.272ZM129.877 173.738L126.273 174.998L126.933 176.886L130.537 175.626L129.877 173.738Z" fill="white"/>
<path d="M129.981 179.985L130.311 180.929L130.311 180.929L129.981 179.985ZM129.62 178.954L129.343 177.993L129.317 178.001L129.29 178.01L129.62 178.954ZM127.294 179.767L126.964 178.823L126.02 179.153L126.35 180.097L127.294 179.767ZM127.294 179.768L127.624 180.712L128.568 180.382L128.238 179.438L127.294 179.768ZM125.369 180.441L125.699 181.385L125.369 180.441ZM125.729 181.472L126.006 182.433L126.033 182.425L126.059 182.416L125.729 181.472ZM128.056 180.659L128.385 181.603L129.329 181.273L129 180.329L128.056 180.659ZM128.055 180.658L127.725 179.714L126.781 180.044L127.111 180.988L128.055 180.658ZM129.666 179.542C129.646 179.482 129.632 179.41 129.634 179.332C129.636 179.255 129.652 179.186 129.673 179.131C129.712 179.028 129.763 178.982 129.764 178.981C129.767 178.978 129.755 178.99 129.723 179.007C129.692 179.025 129.664 179.036 129.651 179.041L130.311 180.929C130.528 180.853 130.857 180.698 131.131 180.441C131.408 180.182 131.811 179.617 131.554 178.882L129.666 179.542ZM129.897 179.915C129.911 179.911 129.942 179.904 129.979 179.9C129.997 179.898 130.012 179.897 130.024 179.897C130.036 179.897 130.041 179.898 130.04 179.898C130.039 179.897 130.027 179.896 130.006 179.889C129.984 179.882 129.948 179.869 129.906 179.842C129.862 179.814 129.812 179.774 129.767 179.719C129.721 179.663 129.687 179.601 129.666 179.542L131.554 178.882C131.304 178.165 130.657 177.96 130.292 177.913C129.921 177.866 129.566 177.929 129.343 177.993L129.897 179.915ZM127.624 180.711L129.95 179.898L129.29 178.01L126.964 178.823L127.624 180.711ZM128.238 179.438L128.238 179.437L126.35 180.097L126.35 180.098L128.238 179.438ZM125.699 181.385L127.624 180.712L126.964 178.824L125.039 179.497L125.699 181.385ZM125.683 180.885C125.704 180.944 125.717 181.016 125.715 181.094C125.714 181.172 125.698 181.24 125.677 181.295C125.638 181.398 125.586 181.444 125.586 181.445C125.582 181.448 125.594 181.437 125.627 181.419C125.657 181.402 125.686 181.39 125.699 181.385L125.039 179.497C124.822 179.573 124.493 179.728 124.218 179.985C123.942 180.245 123.538 180.809 123.795 181.545L125.683 180.885ZM125.452 180.511C125.439 180.515 125.408 180.522 125.37 180.526C125.353 180.528 125.338 180.529 125.326 180.529C125.314 180.529 125.308 180.529 125.309 180.529C125.31 180.529 125.323 180.53 125.344 180.537C125.365 180.544 125.401 180.558 125.444 180.584C125.488 180.612 125.537 180.652 125.583 180.707C125.629 180.764 125.662 180.825 125.683 180.885L123.795 181.545C124.046 182.262 124.693 182.467 125.058 182.513C125.428 182.56 125.784 182.497 126.006 182.433L125.452 180.511ZM127.726 179.715L125.399 180.528L126.059 182.416L128.385 181.603L127.726 179.715ZM127.111 180.988L127.112 180.989L129 180.329L128.999 180.328L127.111 180.988ZM129.651 179.041L127.725 179.714L128.385 181.602L130.311 180.929L129.651 179.041Z" fill="white"/>
<path d="M131.467 178.286L131.137 177.342L131.137 177.342L131.467 178.286ZM130.259 174.833L130.025 173.861L129.976 173.872L129.929 173.889L130.259 174.833ZM125.905 176.355L125.575 175.411L124.631 175.741L124.961 176.685L125.905 176.355ZM125.905 176.355L126.235 177.299L127.179 176.969L126.849 176.025L125.905 176.355ZM122.3 177.615L122.63 178.559L122.3 177.615ZM123.508 181.068L123.742 182.041L123.791 182.029L123.838 182.012L123.508 181.068ZM127.862 179.546L128.192 180.49L129.136 180.16L128.806 179.216L127.862 179.546ZM127.862 179.546L127.532 178.602L126.588 178.932L126.918 179.876L127.862 179.546ZM131.447 176.44C131.52 176.649 131.526 176.791 131.517 176.881C131.508 176.969 131.481 177.036 131.445 177.093C131.361 177.225 131.216 177.314 131.137 177.342L131.796 179.23C132.217 179.083 132.765 178.745 133.134 178.163C133.533 177.533 133.661 176.712 133.335 175.78L131.447 176.44ZM130.494 175.805C130.577 175.785 130.775 175.775 130.964 175.853C131.111 175.914 131.31 176.048 131.447 176.44L133.335 175.78C133.01 174.85 132.402 174.283 131.728 174.005C131.096 173.743 130.459 173.756 130.025 173.861L130.494 175.805ZM126.235 177.299L130.589 175.777L129.929 173.889L125.575 175.411L126.235 177.299ZM126.849 176.025L126.849 176.025L124.961 176.685L124.961 176.685L126.849 176.025ZM122.63 178.559L126.235 177.299L125.575 175.411L121.97 176.671L122.63 178.559ZM122.32 179.462C122.247 179.252 122.241 179.11 122.25 179.021C122.259 178.932 122.286 178.865 122.322 178.808C122.406 178.676 122.551 178.587 122.63 178.559L121.97 176.671C121.55 176.818 121.001 177.156 120.633 177.738C120.234 178.368 120.106 179.189 120.432 180.121L122.32 179.462ZM123.273 180.096C123.19 180.116 122.991 180.126 122.803 180.048C122.656 179.987 122.457 179.853 122.32 179.462L120.432 180.121C120.757 181.051 121.365 181.618 122.039 181.896C122.671 182.158 123.308 182.145 123.742 182.041L123.273 180.096ZM127.532 178.602L123.178 180.125L123.838 182.012L128.192 180.49L127.532 178.602ZM126.918 179.876L126.918 179.876L128.806 179.216L128.806 179.216L126.918 179.876ZM131.137 177.342L127.532 178.602L128.192 180.49L131.796 179.23L131.137 177.342Z" fill="white"/>
<path d="M133.743 154.573C136.309 161.912 132.32 170.019 124.779 172.655C117.237 175.291 109.067 171.434 106.501 164.096C103.936 156.757 107.925 148.65 115.466 146.014C123.008 143.378 131.178 147.235 133.743 154.573Z" stroke="white" stroke-width="2"/>
<path d="M113.551 167.53C114.237 166.279 115.675 163.484 115.94 162.313C116.271 160.85 114.8 160.016 113.711 161.239C112.622 162.462 113.529 166.021 116.058 166.99C118.082 167.765 119.755 165.192 120.338 163.809C120.709 162.781 121.401 160.101 121.204 157.609C120.958 154.493 118.863 155.731 118.78 156.94C118.697 158.148 118.471 159.912 120.271 162.653C121.712 164.845 124.679 164.819 125.983 164.532C126.786 164.42 128.488 163.791 128.867 162.176M128.867 162.176C129.246 160.561 128.415 158.795 127.953 158.114C127.642 157.549 126.764 156.643 125.731 157.543C124.439 158.668 124.296 159.224 124.911 160.02C125.404 160.657 127.753 161.723 128.867 162.176ZM126.351 165.583C126.43 166.454 126.746 168.545 127.37 169.945M118.738 167.907C119.298 168.385 120.608 169.882 121.364 172.044" stroke="white" stroke-width="2"/>
<path d="M52.9838 112.092C54.1879 110.716 56.7299 107.479 57.2652 105.54" stroke="white" stroke-width="2"/>
<path d="M59.6279 126.282C61.6548 126.135 66.4488 125.549 69.4099 124.379" stroke="white" stroke-width="2"/>
<path d="M31.3742 141.381C29.8421 143.265 26.5044 147.599 25.4105 149.869" stroke="white" stroke-width="2"/>
<path d="M24.1215 130.269C21.6616 130.623 16.2825 131.56 14.4445 132.472" stroke="white" stroke-width="2"/>
<path d="M28.2709 114.664C27.0929 113.223 23.8497 110.211 20.3008 109.699" stroke="white" stroke-width="2"/>
<path d="M39.7586 108.964C39.8417 107.756 39.9766 104.574 39.8517 101.518" stroke="white" stroke-width="2"/>
<path d="M52.2069 141.682L52.5368 142.626L52.5368 142.626L52.2069 141.682ZM51.2406 138.918L50.987 137.95L50.9483 137.961L50.9106 137.974L51.2406 138.918ZM46.8861 140.44L46.5561 139.496L45.6121 139.826L45.9421 140.77L46.8861 140.44ZM46.8866 140.441L47.2165 141.385L48.1605 141.055L47.8305 140.111L46.8866 140.441ZM43.2823 141.701L42.9523 140.757L43.2823 141.701ZM44.2486 144.465L44.5022 145.433L44.5408 145.423L44.5785 145.409L44.2486 144.465ZM48.6031 142.943L48.933 143.887L49.877 143.557L49.547 142.613L48.6031 142.943ZM48.6026 142.942L48.2726 141.998L47.3286 142.328L47.6586 143.272L48.6026 142.942ZM52.3023 140.165C52.3404 140.274 52.3333 140.331 52.3289 140.353C52.3236 140.38 52.3092 140.418 52.2688 140.469C52.2262 140.523 52.1626 140.581 52.0821 140.634C52.0014 140.687 51.9248 140.721 51.8769 140.738L52.5368 142.626C52.9159 142.494 53.4467 142.203 53.837 141.71C54.2669 141.167 54.5014 140.395 54.1903 139.505L52.3023 140.165ZM51.4942 139.885C51.6182 139.853 51.8381 139.837 52.0177 139.889C52.0971 139.912 52.1502 139.943 52.1866 139.976C52.2192 140.004 52.2642 140.056 52.3023 140.165L54.1903 139.505C53.8822 138.624 53.2269 138.159 52.5777 137.969C51.9755 137.794 51.3775 137.848 50.987 137.95L51.4942 139.885ZM47.2161 141.384L51.5705 139.862L50.9106 137.974L46.5561 139.496L47.2161 141.384ZM47.8305 140.111L47.8301 140.11L45.9421 140.77L45.9426 140.771L47.8305 140.111ZM43.6122 142.645L47.2165 141.385L46.5566 139.497L42.9523 140.757L43.6122 142.645ZM43.1869 143.218C43.1488 143.109 43.1558 143.053 43.1602 143.03C43.1655 143.003 43.1799 142.965 43.2204 142.914C43.263 142.86 43.3266 142.803 43.407 142.75C43.4877 142.696 43.5643 142.662 43.6122 142.645L42.9523 140.757C42.5732 140.89 42.0424 141.18 41.6521 141.673C41.2223 142.216 40.9877 142.988 41.2989 143.878L43.1869 143.218ZM43.995 143.498C43.871 143.531 43.651 143.546 43.4714 143.494C43.3921 143.471 43.339 143.44 43.3025 143.408C43.27 143.379 43.2249 143.327 43.1869 143.218L41.2989 143.878C41.607 144.759 42.2623 145.225 42.9114 145.414C43.5136 145.59 44.1116 145.535 44.5022 145.433L43.995 143.498ZM48.2731 141.999L43.9186 143.521L44.5785 145.409L48.933 143.887L48.2731 141.999ZM47.6586 143.272L47.6591 143.273L49.547 142.613L49.5466 142.612L47.6586 143.272ZM51.8769 140.738L48.2726 141.998L48.9326 143.886L52.5368 142.626L51.8769 140.738Z" fill="white"/>
<path d="M51.9806 146.985L52.3105 147.929L52.3105 147.929L51.9806 146.985ZM51.6202 145.954L51.3434 144.993L51.3166 145.001L51.2903 145.01L51.6202 145.954ZM49.294 146.767L48.964 145.823L48.02 146.153L48.35 147.097L49.294 146.767ZM49.2943 146.768L49.6243 147.712L50.5683 147.382L50.2383 146.438L49.2943 146.768ZM47.3689 147.441L47.6989 148.385L47.3689 147.441ZM47.7292 148.472L48.006 149.433L48.0329 149.425L48.0592 149.416L47.7292 148.472ZM50.0555 147.659L50.3855 148.603L51.3295 148.273L50.9995 147.329L50.0555 147.659ZM50.0552 147.658L49.7252 146.714L48.7812 147.044L49.1112 147.988L50.0552 147.658ZM51.6664 146.542C51.6455 146.482 51.6324 146.41 51.6341 146.332C51.6358 146.255 51.6517 146.186 51.6726 146.131C51.7116 146.028 51.7633 145.982 51.7637 145.981C51.7671 145.978 51.755 145.99 51.7229 146.007C51.6922 146.025 51.6639 146.036 51.6506 146.041L52.3105 147.929C52.5278 147.853 52.8567 147.698 53.1312 147.441C53.4078 147.182 53.8115 146.617 53.5544 145.882L51.6664 146.542ZM51.897 146.915C51.9108 146.911 51.9419 146.904 51.9792 146.9C51.9966 146.898 52.0116 146.897 52.0235 146.897C52.0357 146.897 52.0411 146.898 52.0401 146.898C52.0394 146.897 52.0269 146.896 52.0056 146.889C51.9841 146.882 51.9485 146.869 51.9058 146.842C51.8619 146.814 51.8125 146.774 51.7668 146.719C51.7206 146.663 51.6873 146.601 51.6664 146.542L53.5544 145.882C53.3037 145.165 52.6568 144.96 52.2916 144.913C51.921 144.866 51.5659 144.929 51.3434 144.993L51.897 146.915ZM49.6239 147.711L51.9502 146.898L51.2903 145.01L48.964 145.823L49.6239 147.711ZM50.2383 146.438L50.238 146.437L48.35 147.097L48.3503 147.098L50.2383 146.438ZM47.6989 148.385L49.6243 147.712L48.9643 145.824L47.039 146.497L47.6989 148.385ZM47.6831 147.885C47.704 147.944 47.7171 148.016 47.7154 148.094C47.7137 148.172 47.6977 148.24 47.6769 148.295C47.6379 148.398 47.5862 148.444 47.5858 148.445C47.5823 148.448 47.5945 148.437 47.6266 148.419C47.6573 148.402 47.6856 148.39 47.6989 148.385L47.039 146.497C46.8217 146.573 46.4928 146.728 46.2183 146.985C45.9417 147.245 45.538 147.809 45.7951 148.545L47.6831 147.885ZM47.4524 147.511C47.4387 147.515 47.4076 147.522 47.3703 147.526C47.3529 147.528 47.3379 147.529 47.3259 147.529C47.3138 147.529 47.3084 147.529 47.3094 147.529C47.3101 147.529 47.3225 147.53 47.3439 147.537C47.3653 147.544 47.401 147.558 47.4437 147.584C47.4876 147.612 47.537 147.652 47.5826 147.707C47.6289 147.764 47.6622 147.825 47.6831 147.885L45.7951 148.545C46.0458 149.262 46.6927 149.467 47.0579 149.513C47.4284 149.56 47.7836 149.497 48.006 149.433L47.4524 147.511ZM49.7255 146.715L47.3993 147.528L48.0592 149.416L50.3855 148.603L49.7255 146.715ZM49.1112 147.988L49.1115 147.989L50.9995 147.329L50.9992 147.328L49.1112 147.988ZM51.6506 146.041L49.7252 146.714L50.3851 148.602L52.3105 147.929L51.6506 146.041Z" fill="white"/>
<path d="M53.4665 145.286L53.1365 144.342L53.1365 144.342L53.4665 145.286ZM52.2593 141.833L52.0249 140.861L51.9764 140.872L51.9293 140.889L52.2593 141.833ZM47.9048 143.355L47.5749 142.411L46.6309 142.741L46.9608 143.685L47.9048 143.355ZM47.9049 143.355L48.2349 144.299L49.1789 143.969L48.8489 143.025L47.9049 143.355ZM45.5076 148.068L45.742 149.041L45.7905 149.029L45.8376 149.012L45.5076 148.068ZM49.8621 146.546L50.1921 147.49L51.1361 147.16L50.8061 146.216L49.8621 146.546ZM49.862 146.546L49.5321 145.602L48.5881 145.932L48.918 146.876L49.862 146.546ZM53.4467 143.44C53.5198 143.649 53.5259 143.791 53.5168 143.881C53.5077 143.969 53.4806 144.036 53.4447 144.093C53.3611 144.225 53.2163 144.314 53.1365 144.342L53.7965 146.23C54.2172 146.083 54.7655 145.745 55.1343 145.163C55.5333 144.533 55.6605 143.712 55.3347 142.78L53.4467 143.44ZM52.4937 142.805C52.5772 142.785 52.7755 142.775 52.9639 142.853C53.1108 142.914 53.3098 143.048 53.4467 143.44L55.3347 142.78C55.0097 141.85 54.402 141.283 53.7282 141.005C53.0959 140.743 52.4594 140.756 52.0249 140.861L52.4937 142.805ZM48.2348 144.299L52.5893 142.777L51.9293 140.889L47.5749 142.411L48.2348 144.299ZM48.8489 143.025L48.8488 143.025L46.9608 143.685L46.9609 143.685L48.8489 143.025ZM44.6304 145.559L48.2349 144.299L47.5749 142.411L43.9705 143.671L44.6304 145.559ZM44.3202 146.462C44.2471 146.252 44.241 146.11 44.2502 146.021C44.2592 145.932 44.2863 145.865 44.3222 145.808C44.4058 145.676 44.5506 145.587 44.6304 145.559L43.9705 143.671C43.5497 143.818 43.0015 144.156 42.6327 144.738C42.2336 145.368 42.1064 146.189 42.4322 147.121L44.3202 146.462ZM45.2732 147.096C45.1897 147.116 44.9914 147.126 44.803 147.048C44.6561 146.987 44.4571 146.853 44.3202 146.462L42.4322 147.121C42.7572 148.051 43.3649 148.618 44.0387 148.896C44.671 149.158 45.3075 149.145 45.742 149.041L45.2732 147.096ZM49.5321 145.602L45.1776 147.125L45.8376 149.012L50.1921 147.49L49.5321 145.602ZM48.918 146.876L48.9181 146.876L50.8061 146.216L50.806 146.216L48.918 146.876ZM53.1365 144.342L49.5321 145.602L50.192 147.49L53.7965 146.23L53.1365 144.342Z" fill="white"/>
<path d="M55.7434 121.573C58.3086 128.912 54.32 137.019 46.7787 139.655C39.2374 142.291 31.0666 138.434 28.5015 131.096C25.9364 123.757 29.9249 115.65 37.4662 113.014C45.0075 110.378 53.1783 114.235 55.7434 121.573Z" stroke="white" stroke-width="2"/>
<path d="M35.5509 134.53C36.2371 133.279 37.6755 130.484 37.9402 129.313C38.271 127.85 36.8001 127.016 35.7111 128.239C34.6222 129.462 35.529 133.021 38.0584 133.99C40.0818 134.765 41.7549 132.192 42.3384 130.809C42.7092 129.781 43.4014 127.101 43.2042 124.609C42.9577 121.493 40.8629 122.731 40.7798 123.94C40.6967 125.148 40.4708 126.912 42.2713 129.653C43.7117 131.845 46.6793 131.819 47.9831 131.532C48.7864 131.42 50.4878 130.791 50.8667 129.176M50.8667 129.176C51.2456 127.561 50.4151 125.795 49.9525 125.114C49.6424 124.549 48.764 123.643 47.7307 124.543C46.4391 125.668 46.2962 126.224 46.9115 127.02C47.4037 127.657 49.7534 128.723 50.8667 129.176ZM48.3505 132.583C48.4302 133.454 48.7457 135.545 49.3697 136.945M40.7378 134.907C41.2981 135.385 42.6077 136.882 43.3635 139.044" stroke="white" stroke-width="2"/>
</svg>
